<?xml version="1.0" encoding="UTF-8"?>
<svg version="1.1" xmlns="http://www.w3.org/2000/svg" width="500" height="500">
<path d="M0 0 C3.90700004 1.32960734 6.25550348 2.93390961 9.1875 5.8125 C42.85941428 36.89042978 97.54682456 66.2130286 144.1875 67.62890625 C146.72205578 68.1478347 147.45086023 68.92102814 149 71 C149.37473011 73.95604038 149.37473011 73.95604038 149.3742218 77.64930725 C149.37819621 78.32832909 149.38217061 79.00735092 149.38626546 79.70694917 C149.39590687 81.98721742 149.38405982 84.26686808 149.37231445 86.54711914 C149.3747418 88.17976615 149.37846056 89.81241169 149.38337708 91.4450531 C149.39279686 95.88296384 149.38335196 100.32065445 149.37004495 104.75854802 C149.35874645 109.39676662 149.36283666 114.03497412 149.36479187 118.67320251 C149.36567527 126.46194058 149.35458422 134.25059167 149.33618164 142.03930664 C149.3150059 151.05354812 149.31150544 160.06766223 149.3177436 169.08192354 C149.32343116 177.74291551 149.31779927 186.40386247 149.30657005 195.06484795 C149.30191675 198.75581123 149.30105336 202.44674705 149.3031559 206.13771248 C149.30503463 210.48053671 149.29696706 214.82323064 149.2810955 219.16602516 C149.27684029 220.76322643 149.27601036 222.36044089 149.27878571 223.95764542 C149.2819904 226.13113376 149.27296961 228.30422854 149.26069641 230.47767639 C149.25761711 232.30527795 149.25761711 232.30527795 149.25447559 234.16980076 C149 237 149 237 147 239 C141.42626022 239.71710614 135.75172196 238.86823197 130.3125 237.625 C129.5704834 237.45637451 128.8284668 237.28774902 128.06396484 237.11401367 C108.98095904 232.49960264 90.12557876 225.73095662 72.46777344 217.18603516 C69.81664291 215.91187686 67.14860648 214.67887692 64.4765625 213.44921875 C20.29975579 192.96386988 -22.46819371 166.1420568 -41.75 119.45703125 C-50.68599723 94.7434139 -47.85303437 69.92721088 -37.17089844 46.41455078 C-31.93661038 35.62074159 -24.93604164 25.9608947 -17 17 C-16.54947266 16.48920898 -16.09894531 15.97841797 -15.63476562 15.45214844 C-10.71673708 9.90007665 -5.78467716 4.65823198 0 0 Z " fill="#2E236E" transform="translate(86,248)"/>
<path d="M0 0 C20.20910839 9.03251346 36.72696722 38.26002619 44.25244141 57.93066406 C52.3852758 80.44336958 50.77707339 104.36372875 40.97680664 126.05004883 C20.54769253 168.85466049 -19.33492024 191.47397947 -60 212 C-60.9787207 212.49741699 -61.95744141 212.99483398 -62.96582031 213.50732422 C-86.9746235 225.64206676 -118.46775671 240.3110592 -146 239 C-147.86495478 237.13504522 -147.13445148 234.00307867 -147.14044189 231.51527405 C-147.14341302 230.82979396 -147.14638414 230.14431387 -147.1494453 229.43806165 C-147.15816816 227.12414162 -147.15964354 224.8102731 -147.16113281 222.49633789 C-147.16575841 220.84428292 -147.17078271 219.19222903 -147.17617798 217.54017639 C-147.18932785 213.04024525 -147.19575182 208.54032904 -147.20018864 204.04038167 C-147.20311485 201.23239327 -147.20721876 198.42440899 -147.21169281 195.61642265 C-147.22537379 186.84065044 -147.23503783 178.06488761 -147.2388947 169.28910547 C-147.24337883 159.14037587 -147.26094062 148.99178073 -147.2898953 138.84309202 C-147.31147082 131.01040622 -147.32159675 123.17775835 -147.32293582 115.34504312 C-147.32398671 110.66124624 -147.32995454 105.97757564 -147.34775543 101.29380989 C-147.36416524 96.89026055 -147.36642642 92.48693339 -147.35761642 88.08336449 C-147.35684226 86.4635776 -147.36123836 84.84377912 -147.37107468 83.22402191 C-147.38368029 81.0196486 -147.37798074 78.81607587 -147.36749268 76.61170959 C-147.36895924 75.37596223 -147.3704258 74.14021486 -147.3719368 72.86702061 C-147.24919765 71.92090381 -147.12645851 70.97478701 -147 70 C-144.0753899 68.05025994 -143.09752621 67.6963291 -139.78125 67.32421875 C-138.94182861 67.22165771 -138.10240723 67.11909668 -137.23754883 67.01342773 C-135.88246216 66.85209351 -135.88246216 66.85209351 -134.5 66.6875 C-83.73492594 59.88903226 -38.60404626 32.35331613 0 0 Z " fill="#2E236E" transform="translate(409,248)"/>
<path d="M0 0 C7.96715175 2.69227765 15.71954288 5.83818822 23.44042969 9.16259766 C24.19291992 9.4805127 24.94541016 9.79842773 25.72070312 10.12597656 C37.63909995 15.16916251 49.09941241 20.93563723 60.44042969 27.16259766 C61.31699219 27.64277344 62.19355469 28.12294922 63.09667969 28.61767578 C74.38436333 34.83725434 85.19980514 41.32838619 95.44042969 49.16259766 C96.7359375 50.14099609 96.7359375 50.14099609 98.05761719 51.13916016 C118.67974553 67.14931091 138.35203756 87.62757502 143.44042969 114.16259766 C144.93459272 126.28585409 143.52862067 137.67733612 139.44042969 149.16259766 C138.82167969 150.91636719 138.82167969 150.91636719 138.19042969 152.70556641 C133.31609057 165.18221284 125.49779519 175.30722929 116.41699219 185.02978516 C114.6888227 186.89456883 113.08448454 188.79909302 111.50292969 190.78759766 C110.82230469 191.57134766 110.14167969 192.35509766 109.44042969 193.16259766 C108.78042969 193.16259766 108.12042969 193.16259766 107.44042969 193.16259766 C107.44042969 193.82259766 107.44042969 194.48259766 107.44042969 195.16259766 C106.78042969 195.16259766 106.12042969 195.16259766 105.44042969 195.16259766 C105.44042969 195.82259766 105.44042969 196.48259766 105.44042969 197.16259766 C104.78042969 197.16259766 104.12042969 197.16259766 103.44042969 197.16259766 C103.44042969 197.82259766 103.44042969 198.48259766 103.44042969 199.16259766 C101.25292969 201.35009766 101.25292969 201.35009766 98.44042969 203.16259766 C94.32656364 202.871116 92.35155533 201.55093641 89.44042969 198.72509766 C52.69203117 164.70104499 0.61608909 139.36161871 -49.13769531 133.52197266 C-51.55957031 133.16259766 -51.55957031 133.16259766 -52.55957031 132.16259766 C-52.65605279 130.31498497 -52.68144349 128.46363955 -52.67982483 126.61351013 C-52.68119949 125.40891144 -52.68257416 124.20431274 -52.68399048 122.96321106 C-52.68045088 121.61618018 -52.67681606 120.26914954 -52.6730957 118.92211914 C-52.67281383 117.51312258 -52.67297156 116.10412587 -52.67353821 114.69512939 C-52.6738262 110.85852136 -52.66792925 107.02194431 -52.66096425 103.1853435 C-52.65473094 99.18012825 -52.65412693 95.17491235 -52.65293884 91.16969299 C-52.64982546 83.58007762 -52.64161198 75.99047657 -52.63158935 68.40086752 C-52.62042843 59.76255842 -52.61491782 51.12424865 -52.60989392 42.48593414 C-52.59942937 24.71148051 -52.58182979 6.93704023 -52.55957031 -10.83740234 C-39.66882479 -17.28277511 -12.31234952 -4.02072609 0 0 Z " fill="#2D236E" transform="translate(314.5595703125,23.83740234375)"/>
<path d="M0 0 C2.28303872 3.42455808 2.24937269 4.63803734 2.24723816 8.6622467 C2.25143265 9.84146194 2.25562714 11.02067719 2.25994873 12.23562622 C2.25432922 13.5308017 2.24870972 14.82597717 2.24291992 16.16040039 C2.24399275 17.53689158 2.24593144 18.91338233 2.24867249 20.28987122 C2.25352345 24.02942254 2.24586235 27.7688547 2.23571944 31.50839162 C2.22694419 35.4179008 2.22869628 39.32740619 2.2290802 43.23692322 C2.2281434 49.8016052 2.21945672 56.36624098 2.20581055 62.9309082 C2.19007832 70.52730473 2.18481266 78.12365067 2.1855461 85.72006232 C2.18615584 93.02057541 2.18105572 100.32107199 2.17275429 107.62158012 C2.16921825 110.73199022 2.16739058 113.84239447 2.16686058 116.95280647 C2.16585812 120.6127108 2.15976942 124.27257244 2.14969444 127.93246269 C2.14536677 129.9216048 2.14594204 131.91075565 2.14663696 133.89990234 C2.14237198 135.07629776 2.13810699 136.25269318 2.13371277 137.46473694 C2.13203692 138.49140504 2.13036108 139.51807314 2.12863445 140.57585239 C2 143 2 143 1 145 C-1.54944348 145.5061849 -4.0529416 145.9003285 -6.625 146.25 C-31.07952632 149.99722388 -54.93466026 157.83778285 -77 169 C-77.79229004 169.39558105 -78.58458008 169.79116211 -79.40087891 170.19873047 C-101.04265069 181.05024729 -121.43775104 193.92868617 -139.43432617 210.20483398 C-142.23472288 212.69671594 -144.26990053 214.42153286 -148 215 C-167.02250932 205.95518213 -182.9965008 179.12717311 -190.25 160.4375 C-196.05469272 143.45877381 -195.9104193 125.54010953 -188.26953125 109.1484375 C-172.11154347 76.56791571 -142.04964365 55.87955645 -111 39 C-110.07380859 38.49436523 -109.14761719 37.98873047 -108.19335938 37.46777344 C-79.31892393 21.79677557 -48.73775585 9.47718047 -16.75 1.75 C-15.9544873 1.55752686 -15.15897461 1.36505371 -14.33935547 1.16674805 C-9.47697551 0.08769789 -4.97978265 -0.41316974 0 0 Z " fill="#2D226E" transform="translate(233,12)"/>
<path d="M0 0 C0.99 0.33 1.98 0.66 3 1 C4.16272658 3.3676246 5.16117981 5.67781356 6.125 8.125 C11.86301325 21.82753512 19.54506633 33.18206611 29.08203125 44.5390625 C29.58041504 45.1362207 30.07879883 45.73337891 30.59228516 46.34863281 C31.84134953 47.81388974 33.14196436 49.23485141 34.44921875 50.6484375 C36 53 36 53 36.09375 55.41015625 C34.56851396 59.02169731 32.12653754 61.59685343 29.5 64.4375 C18.57222831 76.7696897 11.97641088 89.80699327 5.78515625 104.9765625 C4.9274743 107.01557996 3.97530594 109.01455576 3 111 C1.515 111.495 1.515 111.495 0 112 C0.00222061 110.95891083 0.00444122 109.91782166 0.00672913 108.84518433 C0.02718528 98.93335809 0.04207874 89.02153625 0.05181217 79.10969353 C0.05698475 74.0164793 0.06397734 68.92328239 0.07543945 63.83007812 C0.08647185 58.89576172 0.09231892 53.96146175 0.09487724 49.02713394 C0.09669548 47.16412218 0.10024361 45.30111111 0.10573006 43.43810654 C0.13724857 32.2700021 -0.07905569 21.15938493 -0.73712826 10.00803947 C-0.78504796 9.13447367 -0.83296766 8.26090786 -0.88233948 7.36087036 C-0.92884927 6.58970446 -0.97535906 5.81853855 -1.02327824 5.02400398 C-1 3 -1 3 0 0 Z " fill="#342A6E" transform="translate(37,184)"/>
<path d="M0 0 C0.66 0 1.32 0 2 0 C2 36.63 2 73.26 2 111 C1.01 111 0.02 111 -1 111 C-1.46148437 109.82566406 -1.92296875 108.65132813 -2.3984375 107.44140625 C-9.93791709 88.65660118 -19.56419492 71.43580508 -34 57 C-34.125 54.375 -34.125 54.375 -33 51 C-31.56640625 49.42578125 -31.56640625 49.42578125 -29.6875 47.6875 C-17.63590247 36.32703351 -8.02644742 20.06312028 -2.31640625 4.56640625 C-1 1 -1 1 0 0 Z " fill="#32276E" transform="translate(458,184)"/>
<path d="M0 0 C0.77472656 0.19078125 1.54945313 0.3815625 2.34765625 0.578125 C4.23382399 1.04384543 6.11722494 1.52074817 8 2 C8 2.33 8 2.66 8 3 C5.36 3 2.72 3 0 3 C0 2.34 0 1.68 0 1 C-1.9587043 1.14076315 -3.91696093 1.2877676 -5.875 1.4375 C-6.96554687 1.51871094 -8.05609375 1.59992187 -9.1796875 1.68359375 C-11.94728971 1.83001703 -11.94728971 1.83001703 -14 3 C-14.43154227 5.74936305 -14.43154227 5.74936305 -14.5625 8.9375 C-14.90553306 14.81106613 -14.90553306 14.81106613 -16 17 C-16.10468239 18.65953568 -16.14655551 20.32319929 -16.15821838 21.98599243 C-16.1680072 23.04051102 -16.17779602 24.0950296 -16.18788147 25.1815033 C-16.19363693 26.34315506 -16.1993924 27.50480682 -16.20532227 28.70166016 C-16.21522186 29.92114853 -16.22512146 31.1406369 -16.23532104 32.39707947 C-16.2615435 35.74602261 -16.28339119 39.09494146 -16.30332303 42.44392443 C-16.325167 45.94200253 -16.35256345 49.44003695 -16.37937927 52.93807983 C-16.4293277 59.56431683 -16.47425853 66.19057804 -16.51740164 72.81686246 C-16.56675566 80.35972035 -16.62168058 87.90253441 -16.67708123 95.44534993 C-16.79093426 110.96352614 -16.89776605 126.48174263 -17 142 C-16.01 142.33 -15.02 142.66 -14 143 C-15.65 142.67 -17.3 142.34 -19 142 C-19 94.81 -19 47.62 -19 -1 C-13.2852582 -3.8573709 -5.85992103 -1.50306467 0 0 Z " fill="#706B95" transform="translate(281,14)"/>
<path d="M0 0 C2.28303872 3.42455808 2.24937269 4.63803734 2.24723816 8.6622467 C2.25143265 9.84146194 2.25562714 11.02067719 2.25994873 12.23562622 C2.25151947 14.17838943 2.25151947 14.17838943 2.24291992 16.16040039 C2.24399275 17.53689158 2.24593144 18.91338233 2.24867249 20.28987122 C2.25352345 24.02942254 2.24586235 27.7688547 2.23571944 31.50839162 C2.22694419 35.4179008 2.22869628 39.32740619 2.2290802 43.23692322 C2.2281434 49.8016052 2.21945672 56.36624098 2.20581055 62.9309082 C2.19007832 70.52730473 2.18481266 78.12365067 2.1855461 85.72006232 C2.18615584 93.02057541 2.18105572 100.32107199 2.17275429 107.62158012 C2.16921825 110.73199022 2.16739058 113.84239447 2.16686058 116.95280647 C2.16585812 120.6127108 2.15976942 124.27257244 2.14969444 127.93246269 C2.14536677 129.9216048 2.14594204 131.91075565 2.14663696 133.89990234 C2.14237198 135.07629776 2.13810699 136.25269318 2.13371277 137.46473694 C2.13203692 138.49140504 2.13036108 139.51807314 2.12863445 140.57585239 C2 143 2 143 1 145 C-0.65 145 -2.3 145 -4 145 C-2.68 144.67 -1.36 144.34 0 144 C0 97.47 0 50.94 0 3 C-8.12999366 3.35627906 -8.12999366 3.35627906 -16 5 C-17.56118428 5.06740865 -19.1250252 5.08514456 -20.6875 5.0625 C-21.89986328 5.04896484 -21.89986328 5.04896484 -23.13671875 5.03515625 C-24.05904297 5.01775391 -24.05904297 5.01775391 -25 5 C-17.78993903 0.97496596 -8.19658339 -0.9279151 0 0 Z " fill="#817BA0" transform="translate(233,12)"/>
<path d="M0 0 C0.66 0 1.32 0 2 0 C2 36.63 2 73.26 2 111 C1.01 111 0.02 111 -1 111 C-1.69222656 109.23849609 -1.69222656 109.23849609 -2.3984375 107.44140625 C-7.00861687 95.97466334 -12.45413456 85.47606744 -19 75 C-18.01 74.505 -18.01 74.505 -17 74 C-16.60167969 74.67546875 -16.20335937 75.3509375 -15.79296875 76.046875 C-14.99826172 77.38492188 -14.99826172 77.38492188 -14.1875 78.75 C-13.66542969 79.63171875 -13.14335937 80.5134375 -12.60546875 81.421875 C-9.76405777 86.35237555 -9.76405777 86.35237555 -5 89 C-2.46543608 94.44461879 -1.61249589 100.05827036 -2 106 C-1.34 106 -0.68 106 0 106 C0 73 0 40 0 6 C-0.66 6 -1.32 6 -2 6 C-2 7.98 -2 9.96 -2 12 C-2.66 12 -3.32 12 -4 12 C-4.25523437 12.92232422 -4.25523437 12.92232422 -4.515625 13.86328125 C-6.51972556 20.54716981 -6.51972556 20.54716981 -9.1875 23.0625 C-10.0846875 23.5265625 -10.0846875 23.5265625 -11 24 C-9.93751801 20.23301839 -8.50412224 16.99944588 -6.5625 13.625 C-4.20729382 9.5259686 -2.58789225 5.4460983 -1 1 C-0.67 0.67 -0.34 0.34 0 0 Z " fill="#797397" transform="translate(458,184)"/>
<path d="M0 0 C5.75714675 11.51429351 3.98589985 26.48929736 0.25 38.48828125 C-0.1625 39.64714844 -0.575 40.80601562 -1 42 C-1.4125 43.16917969 -1.825 44.33835938 -2.25 45.54296875 C-6.78621836 57.1541413 -14.02646259 66.56251543 -22 76 C-22.33 74.68 -22.66 73.36 -23 72 C-22.34 72 -21.68 72 -21 72 C-20.67 70.68 -20.34 69.36 -20 68 C-19.34 68 -18.68 68 -18 68 C-18.226875 67.4225 -18.45375 66.845 -18.6875 66.25 C-19 64 -19 64 -17.6875 61.75 C-17.130625 61.1725 -16.57375 60.595 -16 60 C-15.34 60 -14.68 60 -14 60 C-13.67 59.01 -13.34 58.02 -13 57 C-12.34 57 -11.68 57 -11 57 C-11.495 55.515 -11.495 55.515 -12 54 C-11.01 54 -10.02 54 -9 54 C-9 53.01 -9 52.02 -9 51 C-8.01 51 -7.02 51 -6 51 C-5.87882812 50.11957031 -5.75765625 49.23914063 -5.6328125 48.33203125 C-5.46523438 47.17058594 -5.29765625 46.00914062 -5.125 44.8125 C-4.96257812 43.66394531 -4.80015625 42.51539063 -4.6328125 41.33203125 C-4.05939755 38.31275375 -3.25240957 35.79424152 -2 33 C-1.34 33 -0.68 33 0 33 C0 22.11 0 11.22 0 0 Z " fill="#625C84" transform="translate(455,131)"/>
<path d="M0 0 C3 1 3 1 4.640625 4.08984375 C5.18842218 5.36759397 5.72445938 6.65043572 6.25 7.9375 C6.53101563 8.58396484 6.81203125 9.23042969 7.1015625 9.89648438 C7.80373244 11.57022115 8.40920546 13.28378346 9 15 C8.67 15.66 8.34 16.32 8 17 C7.34 16.34 6.68 15.68 6 15 C6 14.01 6 13.02 6 12 C5.34 12 4.68 12 4 12 C4 10.35 4 8.7 4 7 C3.34 7 2.68 7 2 7 C2.00222061 7.94308517 2.00444122 8.88617035 2.00672913 9.85783386 C2.02719793 18.84285386 2.0420846 27.827869 2.05181217 36.81290722 C2.05698165 41.42972489 2.06396823 46.04652342 2.07543945 50.66333008 C2.17053406 89.9249828 2.17053406 89.9249828 1 107 C1.99 107 2.98 107 4 107 C3.9071875 105.9171875 3.9071875 105.9171875 3.8125 104.8125 C4.03523932 101.47141026 5.1282246 99.72967245 7 97 C8 99 8 99 7.29296875 101.27734375 C6.92816406 102.15519531 6.56335937 103.03304687 6.1875 103.9375 C5.65189453 105.25041016 5.65189453 105.25041016 5.10546875 106.58984375 C4 109 4 109 2 112 C1.34 112 0.68 112 0 112 C0.00222061 110.95891083 0.00444122 109.91782166 0.00672913 108.84518433 C0.02718528 98.93335809 0.04207874 89.02153625 0.05181217 79.10969353 C0.05698475 74.0164793 0.06397734 68.92328239 0.07543945 63.83007812 C0.08647185 58.89576172 0.09231892 53.96146175 0.09487724 49.02713394 C0.09669548 47.16412218 0.10024361 45.30111111 0.10573006 43.43810654 C0.13724857 32.2700021 -0.07905569 21.15938493 -0.73712826 10.00803947 C-0.78504796 9.13447367 -0.83296766 8.26090786 -0.88233948 7.36087036 C-0.92884927 6.58970446 -0.97535906 5.81853855 -1.02327824 5.02400398 C-1 3 -1 3 0 0 Z " fill="#8580A5" transform="translate(37,184)"/>
<path d="M0 0 C0 0.99 0 1.98 0 3 C-0.66 3.66 -1.32 4.32 -2 5 C-2.6496875 6.60875 -2.6496875 6.60875 -3.3125 8.25 C-4.91932322 12.18507727 -7.18846119 14.82800749 -10 18 C-10.66 18.99 -11.32 19.98 -12 21 C-14.125 21.6875 -14.125 21.6875 -16 22 C-15.8453125 23.051875 -15.8453125 23.051875 -15.6875 24.125 C-16.12779957 28.17575607 -18.39500733 29.95025248 -21 33 C-21.65555119 35.52733235 -21.65555119 35.52733235 -22 38 C-24.4 42.4 -24.4 42.4 -26 44 C-27.89299693 55.45146292 -27.09546933 67.44380481 -27 79 C-27.33 79 -27.66 79 -28 79 C-32.71896301 59.1129416 -29.61379315 41.16249797 -19.10742188 23.75488281 C-13.64584099 15.10015544 -6.97575042 7.45399336 0 0 Z " fill="#6A648C" transform="translate(69,88)"/>
<path d="M0 0 C3.90084776 1.26203898 6.32319203 3.13004453 9.375 5.82421875 C12.0547872 7.76319939 14.79409144 8.29470012 18 9 C17.67 9.99 17.34 10.98 17 12 C17.66 12 18.32 12 19 12 C19.99 13.485 19.99 13.485 21 15 C24.05429073 16.21284876 24.05429073 16.21284876 27 17 C27 17.66 27 18.32 27 19 C27.47050781 18.6390625 27.94101562 18.278125 28.42578125 17.90625 C29.35970703 17.21015625 29.35970703 17.21015625 30.3125 16.5 C30.92738281 16.0359375 31.54226563 15.571875 32.17578125 15.09375 C34 14 34 14 37 14 C37.33 13.01 37.66 12.02 38 11 C39.32 11 40.64 11 42 11 C42 10.01 42 9.02 42 8 C42.66 8 43.32 8 44 8 C44 7.34 44 6.68 44 6 C44.66 6 45.32 6 46 6 C46 5.34 46 4.68 46 4 C47.32 3.67 48.64 3.34 50 3 C49.09373216 4.2989839 48.17450463 5.58893167 47.25 6.875 C46.48429687 7.95394531 46.48429687 7.95394531 45.703125 9.0546875 C43.92496453 11.08570565 42.47298393 11.97855012 40 13 C40 13.66 40 14.32 40 15 C39.34 15 38.68 15 38 15 C38 15.66 38 16.32 38 17 C37.34 17 36.68 17 36 17 C36 17.66 36 18.32 36 19 C33.8125 21.1875 33.8125 21.1875 31 23 C26.88613396 22.70851835 24.91112564 21.38833876 22 18.5625 C17.71082593 14.56167377 13.2098462 11.00836424 8.51757812 7.50219727 C5.44452896 5.18662283 2.64685517 2.79425873 0 0 Z " fill="#332963" transform="translate(382,204)"/>
<path d="M0 0 C1.11196276 3.33588828 1.09809194 4.70572419 0 8 C-1.9375 9.125 -1.9375 9.125 -4 10 C-6.13179824 13.19769736 -6.63246367 15.47216494 -7.33984375 19.16015625 C-8 21 -8 21 -11 23 C-11.66 23.845625 -12.32 24.69125 -13 25.5625 C-15 28 -15 28 -18 29 C-17.649375 29.7425 -17.29875 30.485 -16.9375 31.25 C-15.95490707 34.1322726 -15.9673198 35.21176345 -17 38 C-21.89552239 33.94029851 -21.89552239 33.94029851 -22.3125 30.1875 C-20.71454564 26.30675371 -18.57871199 24.51551695 -15.5390625 21.69140625 C-12.14945931 18.09842687 -9.38426142 14.17108462 -6.5625 10.125 C-6.03035889 9.36276123 -5.49821777 8.60052246 -4.94995117 7.81518555 C-2.28666976 4.02067784 -2.28666976 4.02067784 0 0 Z " fill="#686386" transform="translate(446,208)"/>
<path d="M0 0 C1.32 0 2.64 0 4 0 C4 0.66 4 1.32 4 2 C6.31 2.33 8.62 2.66 11 3 C11 3.99 11 4.98 11 6 C11.928125 6.0928125 11.928125 6.0928125 12.875 6.1875 C15 7 15 7 16.25 9.5625 C16.4975 10.366875 16.745 11.17125 17 12 C18.32 11.67 19.64 11.34 21 11 C21 11.99 21 12.98 21 14 C22.32 14 23.64 14 25 14 C26.5625 15.4375 26.5625 15.4375 28 17 C28.99 17.33 29.98 17.66 31 18 C31 18.99 31 19.98 31 21 C31.99 21 32.98 21 34 21 C34 21.66 34 22.32 34 23 C35.65 22.67 37.3 22.34 39 22 C39 22.99 39 23.98 39 25 C40.32 25 41.64 25 43 25 C43 25.66 43 26.32 43 27 C43.99 27 44.98 27 46 27 C46 27.99 46 28.98 46 30 C40.58337901 28.4915739 36.22918721 25.94322357 31.5 23 C30.31784912 22.27067261 30.31784912 22.27067261 29.11181641 21.52661133 C21.8415912 16.99245289 14.881693 12.09887098 8 7 C6.69289063 6.04867188 6.69289063 6.04867188 5.359375 5.078125 C3.54992482 3.74950774 1.77006628 2.3806517 0 1 C0 0.67 0 0.34 0 0 Z " fill="#655F87" transform="translate(82,419)"/>
<path d="M0 0 C0.77321882 2.98241547 1.41196203 5.97580475 2 9 C1.01 9.66 0.02 10.32 -1 11 C-2.19232613 13.05003955 -2.19232613 13.05003955 -3 15 C-3.99 15 -4.98 15 -6 15 C-7.33981486 15.3062434 -8.67511887 15.63451555 -10 16 C-10.144375 16.78375 -10.28875 17.5675 -10.4375 18.375 C-11 21 -11 21 -12 23 C-12.66 23 -13.32 23 -14 23 C-13.938125 24.175625 -13.938125 24.175625 -13.875 25.375 C-14 28 -14 28 -16 30 C-16.67651207 32.19704511 -16.67651207 32.19704511 -17.125 34.625 C-17.29257812 35.44226563 -17.46015625 36.25953125 -17.6328125 37.1015625 C-17.75398438 37.72804688 -17.87515625 38.35453125 -18 39 C-18.99 39 -19.98 39 -21 39 C-19.36859075 29.66564809 -14.96396296 21.5807643 -10 13.625 C-9.58500244 12.95944092 -9.17000488 12.29388184 -8.74243164 11.6081543 C-6.09595246 7.46708262 -3.21908724 3.71344706 0 0 Z " fill="#312470" transform="translate(65,270)"/>
<path d="M0 0 C0.99 0.33 1.98 0.66 3 1 C-5.22926146 8.0829818 -13.86567086 14.16051766 -23 20 C-24.02609375 20.66 -25.0521875 21.32 -26.109375 22 C-31.10292626 25.11736148 -31.10292626 25.11736148 -33 26 C-33.66 25.67 -34.32 25.34 -35 25 C-34.67 24.34 -34.34 23.68 -34 23 C-32.68 23 -31.36 23 -30 23 C-30 22.34 -30 21.68 -30 21 C-29.34 21 -28.68 21 -28 21 C-28 20.01 -28 19.02 -28 18 C-24.535 17.505 -24.535 17.505 -21 17 C-20.67 15.68 -20.34 14.36 -20 13 C-18.02 12.67 -16.04 12.34 -14 12 C-14.33 11.01 -14.66 10.02 -15 9 C-13.02 8.67 -11.04 8.34 -9 8 C-9 7.34 -9 6.68 -9 6 C-8.01 6 -7.02 6 -6 6 C-6 5.34 -6 4.68 -6 4 C-5.01 4 -4.02 4 -3 4 C-3 3.34 -3 2.68 -3 2 C-2.01 2 -1.02 2 0 2 C0 1.34 0 0.68 0 0 Z " fill="#615984" transform="translate(411,419)"/>
<path d="M0 0 C3.60854389 1.80427195 5.81311066 3.44724796 8.75 6.125 C9.54921875 6.84945312 10.3484375 7.57390625 11.171875 8.3203125 C11.77515625 8.87460937 12.3784375 9.42890625 13 10 C12.67 10.66 12.34 11.32 12 12 C11.13375 11.030625 10.2675 10.06125 9.375 9.0625 C7.08006041 6.7729858 5.98614029 5.9953801 2.8125 4.9375 C0.01911027 4.74196205 0.01911027 4.74196205 -1.8125 6.25 C-3.18447403 8.10172842 -3.18447403 8.10172842 -4 11 C-5.97416268 12.05008653 -7.97582866 13.04987876 -10 14 C-10.66 14.66 -11.32 15.32 -12 16 C-13.32 15.01 -14.64 14.02 -16 13 C-10.72 8.71 -5.44 4.42 0 0 Z " fill="#4D4579" transform="translate(409,248)"/>
<path d="M0 0 C0 0.99 0 1.98 0 3 C-0.66 3.66 -1.32 4.32 -2 5 C-2.6496875 6.60875 -2.6496875 6.60875 -3.3125 8.25 C-4.91932322 12.18507727 -7.18846119 14.82800749 -10 18 C-10.66 18.99 -11.32 19.98 -12 21 C-14.125 21.6875 -14.125 21.6875 -16 22 C-15.896875 22.7425 -15.79375 23.485 -15.6875 24.25 C-16 27 -16 27 -18.5 29.3125 C-19.325 29.869375 -20.15 30.42625 -21 31 C-20.54978232 25.77905467 -18.63193542 22.416991 -15.5625 18.3125 C-14.90338623 17.40927002 -14.90338623 17.40927002 -14.23095703 16.48779297 C-9.8766878 10.62800076 -5.05073192 5.26565669 0 0 Z " fill="#514B7F" transform="translate(69,88)"/>
<path d="M0 0 C1.5 1.125 1.5 1.125 3 3 C3.3125 6.0625 3.3125 6.0625 3 9 C2.34 9.66 1.68 10.32 1 11 C1 10.01 1 9.02 1 8 C0.34 8 -0.32 8 -1 8 C-1 21.2 -1 34.4 -1 48 C-1.33 48 -1.66 48 -2 48 C-4.79349894 31.8126713 -5.25350612 15.76051835 0 0 Z " fill="#656182" transform="translate(43,309)"/>
<path d="M0 0 C-1.62249941 0.83819158 -3.24808497 1.6704116 -4.875 2.5 C-5.77992188 2.9640625 -6.68484375 3.428125 -7.6171875 3.90625 C-10 5 -10 5 -12 5 C-13.54327455 5.34709335 -15.08469451 5.70245955 -16.625 6.0625 C-21.44494417 7.06431979 -25.18010225 6.89257366 -30 6 C-29.67 5.01 -29.34 4.02 -29 3 C-28.38479492 2.91435791 -27.76958984 2.82871582 -27.13574219 2.74047852 C-24.34017963 2.35003829 -21.54509064 1.95630373 -18.75 1.5625 C-17.78191406 1.42779297 -16.81382812 1.29308594 -15.81640625 1.15429688 C-14.88183594 1.02216797 -13.94726562 0.89003906 -12.984375 0.75390625 C-11.69611816 0.57323608 -11.69611816 0.57323608 -10.38183594 0.38891602 C-8.01946774 0.04258277 -8.01946774 0.04258277 -5.82910156 -0.57446289 C-3.59596981 -1.09399688 -2.15762828 -0.69352338 0 0 Z " fill="#3C336C" transform="translate(294,313)"/>
<path d="M0 0 C4.764836 8.82530494 5.28441772 18.37026463 5.3125 28.1875 C5.31781738 29.10128418 5.32313477 30.01506836 5.32861328 30.95654297 C5.26483963 37.16943935 4.4261675 42.95654378 3 49 C2.67 49 2.34 49 2 49 C2 35.47 2 21.94 2 8 C1.34 8 0.68 8 0 8 C0 5.36 0 2.72 0 0 Z " fill="#676287" transform="translate(453,308)"/>
<path d="M0 0 C0.66 0.33 1.32 0.66 2 1 C-1.515625 5.6875 -1.515625 5.6875 -3 7 C-4.32 7 -5.64 7 -7 7 C-7.268125 7.598125 -7.53625 8.19625 -7.8125 8.8125 C-9.00572423 11.01054464 -10.24678871 12.24678871 -12 14 C-12.45375 14.804375 -12.9075 15.60875 -13.375 16.4375 C-15.21005459 19.33123993 -17.2486119 20.99223031 -20 23 C-20.66 21.35 -21.32 19.7 -22 18 C-15.00806994 11.45666722 -7.73558247 5.62225324 0 0 Z " fill="#312866" transform="translate(92,69)"/>
<path d="M0 0 C2.0625 0.4375 2.0625 0.4375 4 1 C0.56579221 2.59054218 -2.8729511 4.17104525 -6.3125 5.75 C-7.26962891 6.1934375 -8.22675781 6.636875 -9.21289062 7.09375 C-22.8367716 13.33229482 -22.8367716 13.33229482 -29 15 C-29.66 14.67 -30.32 14.34 -31 14 C-27.97566283 10.51038019 -25.47468202 9.11867051 -21 8 C-19.68 8 -18.36 8 -17 8 C-17 7.34 -17 6.68 -17 6 C-14.69 6 -12.38 6 -10 6 C-10 5.01 -10 4.02 -10 3 C-9.04287109 2.80083984 -9.04287109 2.80083984 -8.06640625 2.59765625 C-7.24011719 2.42105469 -6.41382813 2.24445313 -5.5625 2.0625 C-4.32693359 1.80146484 -4.32693359 1.80146484 -3.06640625 1.53515625 C-1.02338796 1.19247006 -1.02338796 1.19247006 0 0 Z " fill="#5C5781" transform="translate(341,461)"/>
<path d="M0 0 C9 0 9 0 12.5 0.875 C13.61181641 1.14570313 13.61181641 1.14570313 14.74609375 1.421875 C15.86177734 1.70804688 15.86177734 1.70804688 17 2 C17.77472656 2.19078125 18.54945313 2.3815625 19.34765625 2.578125 C21.23382399 3.04384543 23.11722494 3.52074817 25 4 C25 4.33 25 4.66 25 5 C22.36 5 19.72 5 17 5 C17 4.34 17 3.68 17 3 C15.0412957 3.14076315 13.08303907 3.2877676 11.125 3.4375 C10.03445313 3.51871094 8.94390625 3.59992187 7.8203125 3.68359375 C5.05271029 3.83001703 5.05271029 3.83001703 3 5 C2.60697555 7.75069134 2.60697555 7.75069134 2.5 10.9375 C2.22152691 16.77847309 2.22152691 16.77847309 0 19 C0 12.73 0 6.46 0 0 Z " fill="#312964" transform="translate(264,12)"/>
<path d="M0 0 C4.41889613 1.35021826 6.34345343 3.26115668 9 7 C7.824375 6.79375 6.64875 6.5875 5.4375 6.375 C1.09954633 5.81052474 -1.90471417 6.54958627 -6 8 C-6 8.66 -6 9.32 -6 10 C-7.66279327 11.0064275 -9.32983484 12.00585407 -11 13 C-11.99 14.485 -11.99 14.485 -13 16 C-13.66 15.67 -14.32 15.34 -15 15 C-10.39863498 9.46398272 -5.53601728 4.60136502 0 0 Z " fill="#6C678A" transform="translate(86,248)"/>
<path d="M0 0 C0.33 0 0.66 0 1 0 C1.30474908 14.7803303 1.60065135 29.38215135 -5 43 C-6.1700097 39.08263419 -5.69584017 36.02040985 -5 32 C-4.34 32 -3.68 32 -3 32 C-2.80448662 30.39679026 -2.61888017 28.79237014 -2.4375 27.1875 C-2.33308594 26.29417969 -2.22867187 25.40085937 -2.12109375 24.48046875 C-1.84341291 21.86624428 -1.84341291 21.86624428 -3 19 C-2.34697711 16.99550367 -1.67819938 14.99611875 -1 13 C-0.72419137 10.71547193 -0.5156214 8.42181617 -0.375 6.125 C-0.30023438 4.97257812 -0.22546875 3.82015625 -0.1484375 2.6328125 C-0.09945313 1.76398438 -0.05046875 0.89515625 0 0 Z " fill="#342B62" transform="translate(455,331)"/>
<path d="M0 0 C0.66 0 1.32 0 2 0 C2 7.92 2 15.84 2 24 C1.67 24 1.34 24 1 24 C0.67 18.06 0.34 12.12 0 6 C-0.66 6 -1.32 6 -2 6 C-2 7.98 -2 9.96 -2 12 C-2.66 12 -3.32 12 -4 12 C-4.25523437 12.92232422 -4.25523437 12.92232422 -4.515625 13.86328125 C-6.51972556 20.54716981 -6.51972556 20.54716981 -9.1875 23.0625 C-10.0846875 23.5265625 -10.0846875 23.5265625 -11 24 C-9.93751801 20.23301839 -8.50412224 16.99944588 -6.5625 13.625 C-4.20729382 9.5259686 -2.58789225 5.4460983 -1 1 C-0.67 0.67 -0.34 0.34 0 0 Z " fill="#8C86A6" transform="translate(458,184)"/>
<path d="M0 0 C1.45823212 -0.0270043 2.91660675 -0.04639787 4.375 -0.0625 C5.18710938 -0.07410156 5.99921875 -0.08570313 6.8359375 -0.09765625 C9 0 9 0 11 1 C11 1.99 11 2.98 11 4 C11.78503906 4.07476562 12.57007813 4.14953125 13.37890625 4.2265625 C20.85421483 5.16212259 24.7741623 6.53662422 30 12 C28 13 28 13 25.95629883 12.33496094 C25.13154053 11.97176758 24.30678223 11.60857422 23.45703125 11.234375 C22.54759766 10.83863281 21.63816406 10.44289063 20.70117188 10.03515625 C19.74791016 9.61105469 18.79464844 9.18695313 17.8125 8.75 C16.87857422 8.34136719 15.94464844 7.93273437 14.98242188 7.51171875 C13.15835167 6.7132869 11.33555427 5.91193975 9.51416016 5.10742188 C6.35253885 3.71481028 3.17832857 2.35397676 0 1 C0 0.67 0 0.34 0 0 Z " fill="#676287" transform="translate(151,461)"/>
<path d="M0 0 C0.66 0 1.32 0 2 0 C2 1.32 2 2.64 2 4 C2.59167969 4.10957031 3.18335938 4.21914062 3.79296875 4.33203125 C8.50416395 5.27734448 11.89417885 6.4477328 16 9 C17.010625 9.12375 18.02125 9.2475 19.0625 9.375 C22.88484673 10.18826526 23.88249838 11.82374756 26 15 C18.36903159 12.54339947 10.91028089 9.71145927 3.4375 6.8125 C2.23802734 6.34908203 1.03855469 5.88566406 -0.19726562 5.40820312 C-3.1322277 4.27397475 -6.0664464 3.13786515 -9 2 C-5.61682513 1.02408417 -3.4342662 1.14143345 0 2 C0 1.34 0 0.68 0 0 Z " fill="#6B658A" transform="translate(311,163)"/>
<path d="M0 0 C2.64 0 5.28 0 8 0 C8 0.66 8 1.32 8 2 C11.96 2 15.92 2 20 2 C20.33 3.32 20.66 4.64 21 6 C22.093125 5.95875 23.18625 5.9175 24.3125 5.875 C29.66203382 5.85579162 34.77842235 6.92496931 40 8 C40 8.33 40 8.66 40 9 C33.76729494 9.17244639 28.30205628 8.69801346 22.25 7.25 C21.47865723 7.07243164 20.70731445 6.89486328 19.91259766 6.71191406 C13.1725559 5.12355881 6.57251974 3.18309843 0 1 C0 0.67 0 0.34 0 0 Z " fill="#605B85" transform="translate(193,478)"/>
<path d="M0 0 C0.33 0.66 0.66 1.32 1 2 C-1.89106419 8.71472974 -7.24537341 20.62268671 -14 24 C-14 22.35 -14 20.7 -14 19 C-12.68 18.67 -11.36 18.34 -10 18 C-10.226875 17.401875 -10.45375 16.80375 -10.6875 16.1875 C-10.790625 15.465625 -10.89375 14.74375 -11 14 C-9.6875 12.25 -9.6875 12.25 -8 11 C-7.34 11 -6.68 11 -6 11 C-6.185625 10.38125 -6.37125 9.7625 -6.5625 9.125 C-7 7 -7 7 -6 5 C-5.34 5 -4.68 5 -4 5 C-4 4.34 -4 3.68 -4 3 C-3.34 3 -2.68 3 -2 3 C-2 2.34 -2 1.68 -2 1 C-1.34 0.67 -0.68 0.34 0 0 Z " fill="#676186" transform="translate(448,374)"/>
<path d="M0 0 C3.92842698 3.40874718 5.89344797 7.21787861 8.125 11.8125 C8.47175781 12.49892578 8.81851562 13.18535156 9.17578125 13.89257812 C11.29946736 18.19283908 12.82101151 22.35089591 14 27 C8.33615222 23.26427061 8.33615222 23.26427061 7.37890625 19.6640625 C7.15007416 17.43206945 7.00977395 15.24312155 7 13 C6.34 13 5.68 13 5 13 C5 12.01 5 11.02 5 10 C4.34 10 3.68 10 3 10 C3 8.68 3 7.36 3 6 C2.34 6 1.68 6 1 6 C0.67 4.02 0.34 2.04 0 0 Z " fill="#665F89" transform="translate(439,281)"/>
<path d="M0 0 C0.66 0 1.32 0 2 0 C2 0.99 2 1.98 2 3 C2.99 3 3.98 3 5 3 C5.33 6.63 5.66 10.26 6 14 C6.99 14.33 7.98 14.66 9 15 C9.70211894 16.65204456 10.36971413 18.31923769 11 20 C11.66 20.33 12.32 20.66 13 21 C13.6328125 22.84765625 13.6328125 22.84765625 14.125 25.0625 C14.37636719 26.16271484 14.37636719 26.16271484 14.6328125 27.28515625 C14.75398438 27.85105469 14.87515625 28.41695312 15 29 C6.83604089 21.52338453 2.56932839 10.61989067 0 0 Z " fill="#69628A" transform="translate(42,168)"/>
<path d="M0 0 C3.90084776 1.26203898 6.32319203 3.13004453 9.375 5.82421875 C12.0547872 7.76319939 14.79409144 8.29470012 18 9 C17.67 9.99 17.34 10.98 17 12 C17.66 12 18.32 12 19 12 C19.99 13.485 19.99 13.485 21 15 C21.99 15.1546875 21.99 15.1546875 23 15.3125 C23.66 15.539375 24.32 15.76625 25 16 C26.25 19.0625 26.25 19.0625 27 22 C21.45296575 17.90034129 16.03421593 13.66964433 10.6875 9.3125 C9.98560547 8.74466797 9.28371094 8.17683594 8.56054688 7.59179688 C7.88443359 7.04201172 7.20832031 6.49222656 6.51171875 5.92578125 C5.90803467 5.43505127 5.30435059 4.94432129 4.68237305 4.4387207 C3.03561001 3.03045273 1.50984963 1.55302932 0 0 Z " fill="#696488" transform="translate(382,204)"/>
<path d="M0 0 C0.33 1.32 0.66 2.64 1 4 C0.34 4 -0.32 4 -1 4 C-1 4.99 -1 5.98 -1 7 C-1.66 7 -2.32 7 -3 7 C-3.144375 7.78375 -3.28875 8.5675 -3.4375 9.375 C-4 12 -4 12 -5 14 C-5.66 14 -6.32 14 -7 14 C-6.95875 14.78375 -6.9175 15.5675 -6.875 16.375 C-7 19 -7 19 -9 21 C-9.67651207 23.19704511 -9.67651207 23.19704511 -10.125 25.625 C-10.29257812 26.44226563 -10.46015625 27.25953125 -10.6328125 28.1015625 C-10.75398438 28.72804688 -10.87515625 29.35453125 -11 30 C-11.99 30 -12.98 30 -14 30 C-12.07778561 18.83092272 -6.07537764 9.34673482 0 0 Z " fill="#6B648D" transform="translate(58,279)"/>
<path d="M0 0 C3 1 3 1 4.640625 4.08984375 C5.18842218 5.36759397 5.72445938 6.65043572 6.25 7.9375 C6.53101563 8.58396484 6.81203125 9.23042969 7.1015625 9.89648438 C7.80373244 11.57022115 8.40920546 13.28378346 9 15 C8.67 15.66 8.34 16.32 8 17 C7.34 16.34 6.68 15.68 6 15 C6 14.01 6 13.02 6 12 C5.34 12 4.68 12 4 12 C4 10.35 4 8.7 4 7 C3.01 7 2.02 7 1 7 C1 12.94 1 18.88 1 25 C0.67 25 0.34 25 0 25 C-0.19676145 21.39627603 -0.38081639 17.7920131 -0.5625 14.1875 C-0.61857422 13.16333984 -0.67464844 12.13917969 -0.73242188 11.08398438 C-0.78076172 10.10107422 -0.82910156 9.11816406 -0.87890625 8.10546875 C-0.9260376 7.19949951 -0.97316895 6.29353027 -1.02172852 5.36010742 C-1 3 -1 3 0 0 Z " fill="#BAB8C9" transform="translate(37,184)"/>
<path d="M0 0 C0.66 0 1.32 0 2 0 C3.40234375 2.046875 3.40234375 2.046875 4.9375 4.75 C8.24000983 11.23871633 8.24000983 11.23871633 14 15 C14.94921875 17.50390625 14.94921875 17.50390625 15.6875 20.5625 C16.06455078 22.08037109 16.06455078 22.08037109 16.44921875 23.62890625 C16.63097656 24.41136719 16.81273437 25.19382812 17 26 C16.34 26 15.68 26 15 26 C14.67 25.01 14.34 24.02 14 23 C13.00637285 21.99366751 12.00556326 20.99440562 11 20 C10.05734437 18.55576499 9.16065029 17.08094239 8.30078125 15.5859375 C7.81416016 14.74289062 7.32753906 13.89984375 6.82617188 13.03125 C6.32666016 12.1546875 5.82714844 11.278125 5.3125 10.375 C4.80138672 9.49070312 4.29027344 8.60640625 3.76367188 7.6953125 C0 1.14280499 0 1.14280499 0 0 Z " fill="#615B84" transform="translate(439,258)"/>
<path d="M0 0 C-2.9658988 4.4488482 -6.92512487 4.91090608 -12 6 C-14.40819644 6.20386848 -16.58027251 6.15780831 -19 6 C-18.01 5.67 -17.02 5.34 -16 5 C-15.26676204 2.98491642 -15.26676204 2.98491642 -15 1 C-13.44033408 0.63355422 -11.87707349 0.28239138 -10.3125 -0.0625 C-9.44238281 -0.25972656 -8.57226562 -0.45695312 -7.67578125 -0.66015625 C-4.83998724 -1.02032279 -2.75210018 -0.70909969 0 0 Z " fill="#443B70" transform="translate(311,474)"/>
<path d="M0 0 C2.31 0 4.62 0 7 0 C7.33 0.66 7.66 1.32 8 2 C9.64363134 2.72159424 11.31050386 3.39351421 13 4 C13 4.66 13 5.32 13 6 C15.31 6.33 17.62 6.66 20 7 C20 7.99 20 8.98 20 10 C20.99 10 21.98 10 23 10 C23 10.66 23 11.32 23 12 C17.6462535 10.44347945 12.99849053 8.0182491 8.125 5.375 C7.34125 4.95476562 6.5575 4.53453125 5.75 4.1015625 C3.83107943 3.0718978 1.91522397 2.03652433 0 1 C0 0.67 0 0.34 0 0 Z " fill="#625D83" transform="translate(128,449)"/>
<path d="M0 0 C6.30839521 3.31960761 12.30784406 6.69925996 18 11 C17.01 11.495 17.01 11.495 16 12 C15.443125 11.690625 14.88625 11.38125 14.3125 11.0625 C11.15946578 9.6138086 8.42532653 9.86825667 5 10 C5 9.01 5 8.02 5 7 C4.34 7 3.68 7 3 7 C3 6.01 3 5.02 3 4 C2.01 4 1.02 4 0 4 C0 2.68 0 1.36 0 0 Z " fill="#5E5785" transform="translate(115,270)"/>
<path d="M0 0 C0.99 0.495 0.99 0.495 2 1 C2 1.66 2 2.32 2 3 C2.66 3 3.32 3 4 3 C4.12375 4.134375 4.2475 5.26875 4.375 6.4375 C4.684375 8.2009375 4.684375 8.2009375 5 10 C5.66 10.33 6.32 10.66 7 11 C7.63385922 13.04243528 8.01826504 15.09132519 8.4375 17.1875 C8.623125 17.785625 8.80875 18.38375 9 19 C9.66 19.33 10.32 19.66 11 20 C11.6328125 22.06640625 11.6328125 22.06640625 12.125 24.5625 C12.29257812 25.38878906 12.46015625 26.21507812 12.6328125 27.06640625 C12.75398438 27.70449219 12.87515625 28.34257812 13 29 C9.50982648 25.78277674 7.91879004 22.12429737 5.9375 17.875 C5.4105957 16.7921875 5.4105957 16.7921875 4.87304688 15.6875 C2.4605831 10.56158454 1.00565233 5.57090341 0 0 Z " fill="#6C668C" transform="translate(42,358)"/>
<path d="M0 0 C0.99 0.33 1.98 0.66 3 1 C2.625 3.4375 2.625 3.4375 2 6 C1.01 6.495 1.01 6.495 0 7 C-0.90343684 8.88263881 -0.90343684 8.88263881 -1.625 11.0625 C-1.88539062 11.79597656 -2.14578125 12.52945312 -2.4140625 13.28515625 C-2.60742188 13.85105469 -2.80078125 14.41695313 -3 15 C-3.66 15 -4.32 15 -5 15 C-5 10.71 -5 6.42 -5 2 C-4.34 2.66 -3.68 3.32 -3 4 C-2.01 2.68 -1.02 1.36 0 0 Z " fill="#49426C" transform="translate(44,275)"/>
<path d="M0 0 C1.23556641 0.01740234 1.23556641 0.01740234 2.49609375 0.03515625 C3.32238281 0.04417969 4.14867187 0.05320313 5 0.0625 C5.63808594 0.07410156 6.27617187 0.08570313 6.93359375 0.09765625 C6.93359375 0.42765625 6.93359375 0.75765625 6.93359375 1.09765625 C-7.06640625 5.09765625 -7.06640625 5.09765625 -21.06640625 9.09765625 C-20.73640625 8.43765625 -20.40640625 7.77765625 -20.06640625 7.09765625 C-19.07640625 7.09765625 -18.08640625 7.09765625 -17.06640625 7.09765625 C-17.06640625 6.43765625 -17.06640625 5.77765625 -17.06640625 5.09765625 C-17.72640625 4.76765625 -18.38640625 4.43765625 -19.06640625 4.09765625 C-16.42640625 4.09765625 -13.78640625 4.09765625 -11.06640625 4.09765625 C-11.06640625 3.43765625 -11.06640625 2.77765625 -11.06640625 2.09765625 C-9.015625 1.86979167 -6.96484375 1.64192708 -4.9140625 1.4140625 C-2.61783848 1.0208402 -2.39679667 0.11327016 0 0 Z " fill="#645E85" transform="translate(201.06640625,160.90234375)"/>
<path d="M0 0 C-1 3 -1 3 -3 4 C-4.99960012 4.039992 -7.00047242 4.04346799 -9 4 C-9.33 4.99 -9.66 5.98 -10 7 C-15.78634905 9.74090218 -21.69203097 10.35044272 -28 10 C-25.27101047 8.18067365 -23.25788107 7.30678432 -20.18359375 6.30859375 C-19.25482422 6.00373047 -18.32605469 5.69886719 -17.36914062 5.38476562 C-16.40169922 5.07216797 -15.43425781 4.75957031 -14.4375 4.4375 C-12.51911753 3.8124663 -10.60112852 3.18622327 -8.68359375 2.55859375 C-7.83337646 2.28329834 -6.98315918 2.00800293 -6.10717773 1.72436523 C-1.09100101 0 -1.09100101 0 0 0 Z " fill="#4C4474" transform="translate(323,302)"/>
<path d="M0 0 C0.33 0.66 0.66 1.32 1 2 C-1.35700047 5.79738964 -3.90552223 7.2939676 -8 9 C-8.99 9 -9.98 9 -11 9 C-11 9.99 -11 10.98 -11 12 C-11.99 12.33 -12.98 12.66 -14 13 C-14.66 13.66 -15.32 14.32 -16 15 C-16 14.34 -16 13.68 -16 13 C-16.99 12.67 -17.98 12.34 -19 12 C-18.53102295 11.70754395 -18.0620459 11.41508789 -17.57885742 11.11376953 C-15.44810835 9.7846545 -13.31779997 8.45483472 -11.1875 7.125 C-10.44951172 6.66480469 -9.71152344 6.20460938 -8.95117188 5.73046875 C-8.23896484 5.28574219 -7.52675781 4.84101563 -6.79296875 4.3828125 C-5.81106567 3.77010498 -5.81106567 3.77010498 -4.80932617 3.14501953 C-3.1907533 2.1207169 -1.59375623 1.06250416 0 0 Z " fill="#5D5680" transform="translate(381,270)"/>
<path d="M0 0 C0.84755859 0.09345703 1.69511719 0.18691406 2.56835938 0.28320312 C3.44943359 0.38697266 4.33050781 0.49074219 5.23828125 0.59765625 C6.13095703 0.69755859 7.02363281 0.79746094 7.94335938 0.90039062 C10.14656346 1.14780927 12.34889906 1.40127904 14.55078125 1.66015625 C14.55078125 1.99015625 14.55078125 2.32015625 14.55078125 2.66015625 C7.56076478 3.75767408 0.57844062 4.8333728 -6.44921875 5.66015625 C-6.44921875 4.67015625 -6.44921875 3.68015625 -6.44921875 2.66015625 C-6.77921875 2.00015625 -7.10921875 1.34015625 -7.44921875 0.66015625 C-4.42059919 -0.3493836 -3.08836884 -0.35236423 0 0 Z " fill="#5E5584" transform="translate(214.44921875,155.33984375)"/>
<path d="M0 0 C0.66 0 1.32 0 2 0 C1.67 1.32 1.34 2.64 1 4 C0.34 4 -0.32 4 -1 4 C-1.04125 5.010625 -1.0825 6.02125 -1.125 7.0625 C-1.76127317 11.85902082 -4.69535746 14.67514558 -8 18 C-8.33 16.68 -8.66 15.36 -9 14 C-8.34 14 -7.68 14 -7 14 C-6.67 12.68 -6.34 11.36 -6 10 C-5.34 10 -4.68 10 -4 10 C-4.226875 9.4225 -4.45375 8.845 -4.6875 8.25 C-5 6 -5 6 -3.6875 3.75 C-3.130625 3.1725 -2.57375 2.595 -2 2 C-1.34 2 -0.68 2 0 2 C0 1.34 0 0.68 0 0 Z " fill="#372F64" transform="translate(441,189)"/>
<path d="M0 0 C0.33 0 0.66 0 1 0 C1 7.26 1 14.52 1 22 C1.99 22 2.98 22 4 22 C3.938125 21.278125 3.87625 20.55625 3.8125 19.8125 C4.03523932 16.47141026 5.1282246 14.72967245 7 12 C8 14 8 14 7.29296875 16.27734375 C6.92816406 17.15519531 6.56335937 18.03304688 6.1875 18.9375 C5.83042969 19.81277344 5.47335938 20.68804687 5.10546875 21.58984375 C4 24 4 24 2 27 C1.34 27 0.68 27 0 27 C0 18.09 0 9.18 0 0 Z " fill="#A8A5B7" transform="translate(37,269)"/>
<path d="M0 0 C0 0.99 0 1.98 0 3 C-0.90363281 3.06058594 -1.80726563 3.12117187 -2.73828125 3.18359375 C-3.91777344 3.26738281 -5.09726563 3.35117188 -6.3125 3.4375 C-7.48425781 3.51871094 -8.65601563 3.59992187 -9.86328125 3.68359375 C-13.02590958 3.8867371 -13.02590958 3.8867371 -16 5 C-17.56118428 5.06740865 -19.1250252 5.08514456 -20.6875 5.0625 C-21.89986328 5.04896484 -21.89986328 5.04896484 -23.13671875 5.03515625 C-24.05904297 5.01775391 -24.05904297 5.01775391 -25 5 C-17.56128966 0.8473219 -8.41750237 -0.4951472 0 0 Z " fill="#534C77" transform="translate(233,12)"/>
<path d="M0 0 C6.35082317 4.82529906 6.35082317 4.82529906 8.3125 8.375 C7.78998554 12.76412143 4.81003407 15.7175544 2 19 C2 16.40811129 2.19544116 14.00510025 2.5 11.4375 C2.75658459 9.267222 3 7.18528703 3 5 C2.505 4.505 2.01 4.01 1.5 3.5 C1.005 3.005 0.51 2.51 0 2 C0 1.34 0 0.68 0 0 Z " fill="#706B8F" transform="translate(65,229)"/>
<path d="M0 0 C0 0.66 0 1.32 0 2 C-2.48782298 4.38831006 -4.30945181 5.08391913 -7.6875 6 C-8.780625 6.33 -9.87375 6.66 -11 7 C-11.33 7.99 -11.66 8.98 -12 10 C-14.95664519 11.4783226 -17.74229737 11.06032783 -21 11 C-17.39750049 8.0718145 -13.4592011 5.97587472 -9.375 3.8125 C-8.694375 3.44447266 -8.01375 3.07644531 -7.3125 2.69726562 C-2.24824617 0 -2.24824617 0 0 0 Z " fill="#544D79" transform="translate(137,44)"/>
<path d="M0 0 C-0.57344937 2.86724686 -0.8614515 3.8614515 -3 6 C-5.94950047 7.00207388 -8.65162606 7.10806432 -11.75 7.0625 C-12.54921875 7.05347656 -13.3484375 7.04445313 -14.171875 7.03515625 C-14.77515625 7.02355469 -15.3784375 7.01195312 -16 7 C-13.19350765 5.1290051 -10.50039527 3.76982048 -7.4375 2.375 C-6.46683594 1.92898437 -5.49617187 1.48296875 -4.49609375 1.0234375 C-2 0 -2 0 0 0 Z " fill="#474073" transform="translate(165,31)"/>
<path d="M0 0 C4.50513431 4.23209586 8.514292 8.88695859 12 14 C12 14.66 12 15.32 12 16 C9.83125748 15.49396008 8.00032373 15.00016187 6 14 C5.375 10.9375 5.375 10.9375 5 8 C4.01 7.67 3.02 7.34 2 7 C0 4 0 4 0 0 Z " fill="#928EAC" transform="translate(53,213)"/>
<path d="M0 0 C3.47775179 1.51553404 5.9557984 3.5773456 8.75 6.125 C9.54921875 6.84945312 10.3484375 7.57390625 11.171875 8.3203125 C11.77515625 8.87460937 12.3784375 9.42890625 13 10 C12.67 10.66 12.34 11.32 12 12 C11.13375 11.030625 10.2675 10.06125 9.375 9.0625 C6.35629581 6.07207407 4.37353179 5 0 5 C-3.78059045 5.85296678 -3.78059045 5.85296678 -7 7 C-4.66666667 4.66666667 -2.33333333 2.33333333 0 0 Z " fill="#787492" transform="translate(409,248)"/>
<path d="M0 0 C5.58878505 2.30841121 5.58878505 2.30841121 7.375 5.3125 C8.06805192 8.29262326 8.14184543 10.95032327 8 14 C3.16709462 9.950809 1.6166348 6.03280791 0 0 Z " fill="#4C467A" transform="translate(55,191)"/>
<path d="M0 0 C1.32 0.33 2.64 0.66 4 1 C2.25084555 2.43852875 0.50064205 3.87578198 -1.25 5.3125 C-2.71179688 6.51326172 -2.71179688 6.51326172 -4.203125 7.73828125 C-5.12609375 8.48464844 -6.0490625 9.23101562 -7 10 C-7.721875 10.6084375 -8.44375 11.216875 -9.1875 11.84375 C-9.785625 12.2253125 -10.38375 12.606875 -11 13 C-13.75 12.1875 -13.75 12.1875 -16 11 C-13.50907189 9.75453595 -12.58919267 10.2232422 -10 11 C-9.67 9.68 -9.34 8.36 -9 7 C-8.34 7.33 -7.68 7.66 -7 8 C-6.67 6.68 -6.34 5.36 -6 4 C-5.38125 3.896875 -4.7625 3.79375 -4.125 3.6875 C-1.63473516 3.12474627 -1.63473516 3.12474627 0 0 Z " fill="#6A6389" transform="translate(98,214)"/>
<path d="M0 0 C2.475 0.495 2.475 0.495 5 1 C5 1.99 5 2.98 5 4 C5.928125 4.2165625 5.928125 4.2165625 6.875 4.4375 C9 5 9 5 11 6 C11 6.99 11 7.98 11 9 C11.66 9 12.32 9 13 9 C12.67 10.32 12.34 11.64 12 13 C9.99698146 11.0238076 7.99750133 9.04425526 6 7.0625 C5.42765625 6.49853516 4.8553125 5.93457031 4.265625 5.35351562 C2.82474495 3.92121224 1.41012857 2.46258871 0 1 C0 0.67 0 0.34 0 0 Z " fill="#5B567E" transform="translate(69,406)"/>
<path d="M0 0 C-2.40183836 1.60122557 -4.15178154 2.53585561 -6.79296875 3.5078125 C-7.50517578 3.77207031 -8.21738281 4.03632813 -8.95117188 4.30859375 C-9.68916016 4.57800781 -10.42714844 4.84742188 -11.1875 5.125 C-11.93708984 5.40214844 -12.68667969 5.67929688 -13.45898438 5.96484375 C-15.30470959 6.64670402 -17.15218787 7.32381559 -19 8 C-19 7.34 -19 6.68 -19 6 C-18.34 6 -17.68 6 -17 6 C-16.67 5.01 -16.34 4.02 -16 3 C-14.68 3 -13.36 3 -12 3 C-12 2.34 -12 1.68 -12 1 C-7.93631321 0.22596442 -4.13574827 -0.0984702 0 0 Z " fill="#6C6793" transform="translate(180,170)"/>
<path d="M0 0 C7.03645577 1.88619822 14.03359344 3.86927695 21 6 C21 6.33 21 6.66 21 7 C19.741875 7.020625 18.48375 7.04125 17.1875 7.0625 C16.47980469 7.07410156 15.77210938 7.08570313 15.04296875 7.09765625 C13 7 13 7 10 6 C10 5.34 10 4.68 10 4 C9.0925 4.226875 8.185 4.45375 7.25 4.6875 C4 5 4 5 1.625 3.6875 C0 2 0 2 0 0 Z " fill="#5C5380" transform="translate(179,304)"/>
<path d="M0 0 C4.46797338 1.39878802 8.63822079 3.13630772 12.875 5.125 C14.60363281 5.93324219 14.60363281 5.93324219 16.3671875 6.7578125 C17.23601562 7.16773438 18.10484375 7.57765625 19 8 C19 8.33 19 8.66 19 9 C17.5199159 8.88637738 16.04089926 8.75877092 14.5625 8.625 C13.73878906 8.55539062 12.91507813 8.48578125 12.06640625 8.4140625 C11.38449219 8.27742188 10.70257813 8.14078125 10 8 C9.67 7.34 9.34 6.68 9 6 C6.97536745 5.34786708 6.97536745 5.34786708 5 5 C5 4.34 5 3.68 5 3 C4.34 3 3.68 3 3 3 C2.67 3.66 2.34 4.32 2 5 C1.34 4.34 0.68 3.68 0 3 C0 2.01 0 1.02 0 0 Z " fill="#5A547F" transform="translate(150,291)"/>
<path d="M0 0 C-3.17008997 2.11339331 -4.44151041 2.31013264 -8.125 2.5625 C-11.36920975 2.54484879 -11.36920975 2.54484879 -14 4 C-16.53049402 4.07313567 -19.03304837 4.09247527 -21.5625 4.0625 C-22.27341797 4.05798828 -22.98433594 4.05347656 -23.71679688 4.04882812 C-25.47790013 4.03700864 -27.23896036 4.01907263 -29 4 C-29 3.67 -29 3.34 -29 3 C-28.38479492 2.91435791 -27.76958984 2.82871582 -27.13574219 2.74047852 C-24.34017963 2.35003829 -21.54509064 1.95630373 -18.75 1.5625 C-17.78191406 1.42779297 -16.81382812 1.29308594 -15.81640625 1.15429688 C-14.88183594 1.02216797 -13.94726562 0.89003906 -12.984375 0.75390625 C-11.69611816 0.57323608 -11.69611816 0.57323608 -10.38183594 0.38891602 C-8.01946774 0.04258277 -8.01946774 0.04258277 -5.82910156 -0.57446289 C-3.59596981 -1.09399688 -2.15762828 -0.69352338 0 0 Z " fill="#625D81" transform="translate(294,313)"/>
<path d="M0 0 C0.66 1.32 1.32 2.64 2 4 C1.60167969 4.58007812 1.20335937 5.16015625 0.79296875 5.7578125 C-2.12751607 10.0639288 -4.81884446 14.274163 -7 19 C-7.33 17.68 -7.66 16.36 -8 15 C-7.34 15 -6.68 15 -6 15 C-5.86722656 14.30132812 -5.73445313 13.60265625 -5.59765625 12.8828125 C-5.42105469 11.97273438 -5.24445312 11.06265625 -5.0625 10.125 C-4.88847656 9.22007812 -4.71445312 8.31515625 -4.53515625 7.3828125 C-4 5 -4 5 -3 3 C-2.01 3 -1.02 3 0 3 C0 2.01 0 1.02 0 0 Z " fill="#615B86" transform="translate(55,257)"/>
<path d="M0 0 C5.85659906 1.66153012 11.4590134 3.47041916 17 6 C17 6.33 17 6.66 17 7 C13.7 6.67 10.4 6.34 7 6 C7 5.34 7 4.68 7 4 C4.69 3.67 2.38 3.34 0 3 C0 2.01 0 1.02 0 0 Z " fill="#504876" transform="translate(321,27)"/>
<path d="M0 0 C0.66 0 1.32 0 2 0 C0.48729451 3.45308687 -1.54720642 5.95624379 -4.0625 8.75 C-5.13177734 9.94882812 -5.13177734 9.94882812 -6.22265625 11.171875 C-6.80917969 11.77515625 -7.39570313 12.3784375 -8 13 C-8.33 13 -8.66 13 -9 13 C-9 11.35 -9 9.7 -9 8 C-8.01 8 -7.02 8 -6 8 C-5.67 6.35 -5.34 4.7 -5 3 C-3.35 2.67 -1.7 2.34 0 2 C0 1.34 0 0.68 0 0 Z " fill="#6E6990" transform="translate(432,398)"/>
<path d="M0 0 C6.0546875 -0.1953125 6.0546875 -0.1953125 8 0 C8.66 0.66 9.32 1.32 10 2 C11.31747324 2.69748583 12.64914193 3.36959957 14 4 C14 4.66 14 5.32 14 6 C14.66 6 15.32 6 16 6 C16 6.66 16 7.32 16 8 C10.31497465 6.35433477 5.23318364 3.70967216 0 1 C0 0.67 0 0.34 0 0 Z " fill="#645D89" transform="translate(337,178)"/>
<path d="M0 0 C3.99824088 3.66505414 6.60168569 7.11112852 9 12 C8.67 12.66 8.34 13.32 8 14 C7.34 13.67 6.68 13.34 6 13 C6 12.01 6 11.02 6 10 C4.68 10 3.36 10 2 10 C1.34 6.7 0.68 3.4 0 0 Z " fill="#5E5881" transform="translate(440,103)"/>
<path d="M0 0 C1.27609323 0.90933009 2.54565553 1.82782853 3.8125 2.75 C4.87404297 3.51570313 4.87404297 3.51570313 5.95703125 4.296875 C8.02977691 6.02482358 9.47375854 7.78526476 11 10 C10.34 10 9.68 10 9 10 C8.67 10.66 8.34 11.32 8 12 C8 10.68 8 9.36 8 8 C6.68 8 5.36 8 4 8 C4 7.34 4 6.68 4 6 C3.360625 5.896875 2.72125 5.79375 2.0625 5.6875 C1.381875 5.460625 0.70125 5.23375 0 5 C-0.33 4.01 -0.66 3.02 -1 2 C-0.67 1.34 -0.34 0.68 0 0 Z " fill="#57517C" transform="translate(418,80)"/>
<path d="M0 0 C1.5 1.125 1.5 1.125 3 3 C3.3125 6.0625 3.3125 6.0625 3 9 C2.34 9.66 1.68 10.32 1 11 C1 10.01 1 9.02 1 8 C0.34 8 -0.32 8 -1 8 C-1 10.64 -1 13.28 -1 16 C-1.66 16 -2.32 16 -3 16 C-2.52013969 10.43109483 -1.70084819 5.32932432 0 0 Z " fill="#5D5680" transform="translate(43,309)"/>
<path d="M0 0 C0.66 0.33 1.32 0.66 2 1 C0.71520959 2.50589388 -0.57804082 4.00457375 -1.875 5.5 C-2.59429687 6.3353125 -3.31359375 7.170625 -4.0546875 8.03125 C-4.69664062 8.6809375 -5.33859375 9.330625 -6 10 C-6.66 10 -7.32 10 -8 10 C-8 10.66 -8 11.32 -8 12 C-8.66 12 -9.32 12 -10 12 C-10 12.66 -10 13.32 -10 14 C-10.66 13.67 -11.32 13.34 -12 13 C-11.34 11.35 -10.68 9.7 -10 8 C-8.68 8 -7.36 8 -6 8 C-6 7.01 -6 6.02 -6 5 C-5.34 5 -4.68 5 -4 5 C-4 4.34 -4 3.68 -4 3 C-3.34 3 -2.68 3 -2 3 C-2 2.34 -2 1.68 -2 1 C-1.34 0.67 -0.68 0.34 0 0 Z " fill="#5A5481" transform="translate(430,207)"/>
<path d="M0 0 C2.24973447 -0.054138 4.49984383 -0.09285491 6.75 -0.125 C8.00296875 -0.14820313 9.2559375 -0.17140625 10.546875 -0.1953125 C13.72820492 -0.01537302 15.36521896 0.31001418 18 2 C18 2.66 18 3.32 18 4 C5.33029613 3.22095672 5.33029613 3.22095672 0 1 C0 0.67 0 0.34 0 0 Z " fill="#5B577A" transform="translate(264,155)"/>
<path d="M0 0 C6.02487844 -0.21908649 11.17549506 0.50601953 17 2 C17.77472656 2.19078125 18.54945313 2.3815625 19.34765625 2.578125 C21.23382399 3.04384543 23.11722494 3.52074817 25 4 C25 4.33 25 4.66 25 5 C22.36 5 19.72 5 17 5 C17 4.34 17 3.68 17 3 C16.03900391 3.03480469 16.03900391 3.03480469 15.05859375 3.0703125 C9.59012904 3.18440863 5.16901723 2.79791904 0 1 C0 0.67 0 0.34 0 0 Z " fill="#5B5582" transform="translate(264,12)"/>
<path d="M0 0 C6.17222879 1.24028238 12.06682122 2.89603589 18 5 C17.01 5.66 16.02 6.32 15 7 C12.97821315 6.40265389 10.98014432 5.72351427 9 5 C6.67305036 4.62468554 4.34023315 4.28082798 2 4 C2 3.01 2 2.02 2 1 C1.34 0.67 0.68 0.34 0 0 Z " fill="#3F3770" transform="translate(302,21)"/>
<path d="M0 0 C2.31 0 4.62 0 7 0 C7.33 1.32 7.66 2.64 8 4 C8.61875 4.0825 9.2375 4.165 9.875 4.25 C12 5 12 5 13.25 7.0625 C13.4975 7.701875 13.745 8.34125 14 9 C10.40241608 7.67726488 7.36262865 6.0805802 4.1875 3.9375 C3.39730469 3.41027344 2.60710937 2.88304687 1.79296875 2.33984375 C1.20128906 1.89769531 0.60960937 1.45554688 0 1 C0 0.67 0 0.34 0 0 Z " fill="#605A82" transform="translate(368,195)"/>
<path d="M0 0 C1.65 0 3.3 0 5 0 C1.79509037 2.59037598 -1.55350453 4.37943156 -5.25 6.1875 C-6.86648437 6.98220703 -6.86648437 6.98220703 -8.515625 7.79296875 C-9.33546875 8.19128906 -10.1553125 8.58960938 -11 9 C-11 8.34 -11 7.68 -11 7 C-10.34 7 -9.68 7 -9 7 C-8.67 5.35 -8.34 3.7 -8 2 C-7.34 2 -6.68 2 -6 2 C-6 2.66 -6 3.32 -6 4 C-4.02 3.34 -2.04 2.68 0 2 C0 1.34 0 0.68 0 0 Z " fill="#716B8F" transform="translate(147,182)"/>
<path d="M0 0 C4.62 0 9.24 0 14 0 C14 0.66 14 1.32 14 2 C15.98 2.66 17.96 3.32 20 4 C15.60155678 5.37344385 12.07495445 4.24307502 7.75 3.0625 C7.00492187 2.86720703 6.25984375 2.67191406 5.4921875 2.47070312 C3.65920614 1.98895802 1.82928182 1.49560775 0 1 C0 0.67 0 0.34 0 0 Z " fill="#565078" transform="translate(282,159)"/>
<path d="M0 0 C1.3274855 3.98245651 -0.00092171 6.44789543 -1.4375 10.1875 C-1.80198242 11.16879883 -1.80198242 11.16879883 -2.17382812 12.16992188 C-2.7743293 13.78303286 -3.38609203 15.3919435 -4 17 C-5.1700097 13.08263419 -4.69584017 10.02040985 -4 6 C-3.34 6 -2.68 6 -2 6 C-1.855625 5.195625 -1.71125 4.39125 -1.5625 3.5625 C-1 1 -1 1 0 0 Z " fill="#666084" transform="translate(454,357)"/>
<path d="M0 0 C0 0.66 0 1.32 0 2 C-0.66 2 -1.32 2 -2 2 C-2 2.66 -2 3.32 -2 4 C-5.36683915 6.43160605 -6.73350364 7 -11 7 C-12.34164079 6.7018576 -13.67851173 6.37756808 -15 6 C-12.87717331 4.99539469 -10.75166979 3.99644398 -8.625 3 C-7.44164062 2.443125 -6.25828125 1.88625 -5.0390625 1.3125 C-2 0 -2 0 0 0 Z " fill="#473F70" transform="translate(348,291)"/>
<path d="M0 0 C0.66 0 1.32 0 2 0 C2 7.92 2 15.84 2 24 C1.67 24 1.34 24 1 24 C1 17.73 1 11.46 1 5 C0.01 5 -0.98 5 -2 5 C-1.34 3.35 -0.68 1.7 0 0 Z " fill="#B4B0C2" transform="translate(458,184)"/>
<path d="M0 0 C0.33 0 0.66 0 1 0 C1 7.59 1 15.18 1 23 C0.01 23 -0.98 23 -2 23 C-2.33 21.68 -2.66 20.36 -3 19 C-2.01 19 -1.02 19 0 19 C0 12.73 0 6.46 0 0 Z " fill="#A9A7B8" transform="translate(459,272)"/>
<path d="M0 0 C3.26008643 3.16952847 6.22237877 6.39937989 9 10 C8.67 10.66 8.34 11.32 8 12 C5.02877247 10.7954483 3.34472323 9.75946836 2 6.796875 C1.26325402 4.54413248 0.59175308 2.29484731 0 0 Z " fill="#5D577F" transform="translate(430,269)"/>
<path d="M0 0 C2 3 2 3 1.7578125 5.3828125 C1.44457031 6.74019531 1.44457031 6.74019531 1.125 8.125 C0.06609795 13.22266309 -0.17035013 17.8043209 0 23 C-0.66 23 -1.32 23 -2 23 C-2.14643105 15.6459071 -1.97413108 8.29996994 -1 1 C-0.67 0.67 -0.34 0.34 0 0 Z " fill="#372E6A" transform="translate(43,131)"/>
<path d="M0 0 C3.67882073 3.28466137 5.75150101 6.66360908 8 11 C8 11.66 8 12.32 8 13 C7.01 13 6.02 13 5 13 C5 12.01 5 11.02 5 10 C4.34 10 3.68 10 3 10 C3 8.68 3 7.36 3 6 C2.34 6 1.68 6 1 6 C0.67 4.02 0.34 2.04 0 0 Z " fill="#6F6991" transform="translate(439,281)"/>
<path d="M0 0 C1.11196276 3.33588828 1.09809194 4.70572419 0 8 C-1.75 9 -1.75 9 -4 10 C-5.70496537 11.62746694 -7.37897032 13.28891311 -9 15 C-7.38325319 11.57053707 -5.42402323 8.43736948 -3.375 5.25 C-2.74335938 4.26515625 -2.11171875 3.2803125 -1.4609375 2.265625 C-0.97882813 1.51796875 -0.49671875 0.7703125 0 0 Z " fill="#837E9F" transform="translate(446,208)"/>
<path d="M0 0 C0.66 0 1.32 0 2 0 C0.47275469 6.39456368 -0.81279066 10.79415459 -6 15 C-6 13.68 -6 12.36 -6 11 C-5.34 11 -4.68 11 -4 11 C-4 9.35 -4 7.7 -4 6 C-3.34 6 -2.68 6 -2 6 C-2.33 5.01 -2.66 4.02 -3 3 C-2.01 3 -1.02 3 0 3 C0 2.01 0 1.02 0 0 Z " fill="#5C5580" transform="translate(446,182)"/>
<path d="M0 0 C1.98270912 0.95098266 3.96108379 1.91100703 5.9375 2.875 C7.03964844 3.40867188 8.14179688 3.94234375 9.27734375 4.4921875 C12 6 12 6 13 8 C11.02 8 9.04 8 7 8 C6.67 7.34 6.34 6.68 6 6 C3.97536745 5.34786708 3.97536745 5.34786708 2 5 C2 4.01 2 3.02 2 2 C1.34 2 0.68 2 0 2 C0 1.34 0 0.68 0 0 Z " fill="#57507E" transform="translate(381,55)"/>
<path d="M0 0 C2.0625 0.4375 2.0625 0.4375 4 1 C1.87959258 2.03033882 -0.24647908 3.04902854 -2.375 4.0625 C-4.15003906 4.91521484 -4.15003906 4.91521484 -5.9609375 5.78515625 C-6.96382813 6.18605469 -7.96671875 6.58695312 -9 7 C-9.66 6.67 -10.32 6.34 -11 6 C-10.67 5.01 -10.34 4.02 -10 3 C-7.96875 2.3046875 -7.96875 2.3046875 -5.5 1.875 C-2.46069634 1.52112584 -2.46069634 1.52112584 0 0 Z " fill="#625D84" transform="translate(341,461)"/>
<path d="M0 0 C1.65 0 3.3 0 5 0 C1.89621148 2.63822024 -0.81462924 3.70365731 -4.75 4.6875 C-6.22726562 5.06455078 -6.22726562 5.06455078 -7.734375 5.44921875 C-8.48203125 5.63097656 -9.2296875 5.81273437 -10 6 C-10 5.01 -10 4.02 -10 3 C-6.52674819 1.8422494 -3.63932552 1.93133348 0 2 C0 1.34 0 0.68 0 0 Z " fill="#474073" transform="translate(348,457)"/>
<path d="M0 0 C0.33 0.99 0.66 1.98 1 3 C-1.85211349 6.01056424 -4.2436708 8.25599001 -8 10 C-8.33 10.66 -8.66 11.32 -9 12 C-9.66 12 -10.32 12 -11 12 C-9.84826645 9.53199953 -8.95216435 7.95216435 -7 6 C-6.01 6 -5.02 6 -4 6 C-3.71125 5.38125 -3.4225 4.7625 -3.125 4.125 C-2 2 -2 2 0 0 Z " fill="#4E4974" transform="translate(77,258)"/>
<path d="M0 0 C-0.33 2.31 -0.66 4.62 -1 7 C-2.65 7.33 -4.3 7.66 -6 8 C-5.65442041 4.8033888 -5.42865983 3.38847297 -3 1.1875 C-1 0 -1 0 0 0 Z " fill="#514A77" transform="translate(439,222)"/>
<path d="M0 0 C0.99 0.33 1.98 0.66 3 1 C1.37982158 2.33918806 -0.24629343 3.6711969 -1.875 5 C-3.23238281 6.11375 -3.23238281 6.11375 -4.6171875 7.25 C-7 9 -7 9 -9 9 C-9 8.01 -9 7.02 -9 6 C-8.01 6 -7.02 6 -6 6 C-6 5.34 -6 4.68 -6 4 C-5.01 4 -4.02 4 -3 4 C-3 3.34 -3 2.68 -3 2 C-2.01 2 -1.02 2 0 2 C0 1.34 0 0.68 0 0 Z " fill="#726D8E" transform="translate(411,419)"/>
<path d="M0 0 C2.77194429 1.02707831 3.82810489 1.6944087 5.30078125 4.3125 C5.63464844 5.199375 5.96851563 6.08625 6.3125 7 C6.65925781 7.886875 7.00601563 8.77375 7.36328125 9.6875 C8 12 8 12 7 14 C6.34 13.34 5.68 12.68 5 12 C5 11.01 5 10.02 5 9 C4.34 9 3.68 9 3 9 C3 7.35 3 5.7 3 4 C2.01 4 1.02 4 0 4 C0 2.68 0 1.36 0 0 Z " fill="#9C99B1" transform="translate(38,187)"/>
<path d="M0 0 C4.15166045 2.93058385 7.21390967 5.28123878 8.4375 10.375 C8.623125 11.57125 8.80875 12.7675 9 14 C4.9918197 10.32583472 2.47408385 6.85653496 0 2 C0 1.34 0 0.68 0 0 Z " fill="#8985A2" transform="translate(48,183)"/>
<path d="M0 0 C0.66 0 1.32 0 2 0 C2 1.32 2 2.64 2 4 C2.99 4.33 3.98 4.66 5 5 C0.02906176 4.58846263 -4.44508386 4.20399168 -9 2 C-5.67465243 0.89155081 -3.37817425 1.15545644 0 2 C0 1.34 0 0.68 0 0 Z " fill="#59547E" transform="translate(311,163)"/>
<path d="M0 0 C4.39453125 0.73242188 4.39453125 0.73242188 8.7890625 1.46484375 C10.37847656 1.72974609 10.37847656 1.72974609 12 2 C14 2.33333333 16 2.66666667 18 3 C18 3.33 18 3.66 18 4 C11.59370576 4.20852314 6.07027358 4.1583195 0 2 C0 1.34 0 0.68 0 0 Z " fill="#635E86" transform="translate(200,311)"/>
<path d="M0 0 C0.33 0.99 0.66 1.98 1 3 C0.01 3.99 -0.98 4.98 -2 6 C-2 4.68 -2 3.36 -2 2 C-1.34 2 -0.68 2 0 2 C0 1.34 0 0.68 0 0 Z M-4 6 C-3.34 6.33 -2.68 6.66 -2 7 C-3.65 8.98 -5.3 10.96 -7 13 C-7.66 12.34 -8.32 11.68 -9 11 C-7.35 9.35 -5.7 7.7 -4 6 Z " fill="#372D66" transform="translate(448,210)"/>
<path d="M0 0 C0 0.99 0 1.98 0 3 C-0.66 3 -1.32 3 -2 3 C-2 3.66 -2 4.32 -2 5 C-3.98 5.33 -5.96 5.66 -8 6 C-8 6.66 -8 7.32 -8 8 C-9.32 7.67 -10.64 7.34 -12 7 C-8.04 4.69 -4.08 2.38 0 0 Z " fill="#574F7D" transform="translate(115,55)"/>
<path d="M0 0 C1.45823212 -0.0270043 2.91660675 -0.04639787 4.375 -0.0625 C5.18710938 -0.07410156 5.99921875 -0.08570313 6.8359375 -0.09765625 C9 0 9 0 11 1 C11 1.99 11 2.98 11 4 C7.0507432 3.44894091 3.65079826 2.61064629 0 1 C0 0.67 0 0.34 0 0 Z " fill="#57517B" transform="translate(151,461)"/>
<path d="M0 0 C4.28477792 2.30718811 7.72291137 4.32966073 11 8 C8.69 8 6.38 8 4 8 C3.71125 7.195625 3.4225 6.39125 3.125 5.5625 C2.26737432 2.8673532 2.26737432 2.8673532 0 2 C0 1.34 0 0.68 0 0 Z " fill="#655E85" transform="translate(104,262)"/>
<path d="M0 0 C1.9375 0.375 1.9375 0.375 4 1 C4.33 1.66 4.66 2.32 5 3 C7.01669827 4.13350534 7.01669827 4.13350534 9 5 C9 5.99 9 6.98 9 8 C9.66 8 10.32 8 11 8 C10.67 8.66 10.34 9.32 10 10 C8.70450101 8.90033225 7.41373929 7.79508199 6.125 6.6875 C5.40570313 6.07261719 4.68640625 5.45773438 3.9453125 4.82421875 C2 3 2 3 0 0 Z " fill="#6E6890" transform="translate(71,214)"/>
<path d="M0 0 C0.33 0 0.66 0 1 0 C1 2.97 1 5.94 1 9 C3.31 9 5.62 9 8 9 C8.33 9.99 8.66 10.98 9 12 C6.03 11.67 3.06 11.34 0 11 C0 7.37 0 3.74 0 0 Z " fill="#2F285C" transform="translate(264,144)"/>
<path d="M0 0 C0.66 0.33 1.32 0.66 2 1 C-1.515625 5.6875 -1.515625 5.6875 -3 7 C-4.32 7 -5.64 7 -7 7 C-7 7.66 -7 8.32 -7 9 C-7.99 8.67 -8.98 8.34 -10 8 C-6.7 5.36 -3.4 2.72 0 0 Z " fill="#57527D" transform="translate(92,69)"/>
<path d="M0 0 C0.33 0.66 0.66 1.32 1 2 C-2.20945602 4.8503026 -4.49988548 5.43451699 -8.75 5.6875 C-9.73484375 5.75324219 -10.7196875 5.81898437 -11.734375 5.88671875 C-12.48203125 5.92410156 -13.2296875 5.96148438 -14 6 C-11.09091772 4.06061181 -8.59137621 3.03225043 -5.3125 1.875 C-4.31863281 1.52179687 -3.32476562 1.16859375 -2.30078125 0.8046875 C-1.54152344 0.53914063 -0.78226563 0.27359375 0 0 Z " fill="#5A5180" transform="translate(179,25)"/>
<path d="M0 0 C2.63978826 3.18595135 5.10498388 6.30970546 7 10 C6.67 10.66 6.34 11.32 6 12 C1.30021142 9.10782241 1.30021142 9.10782241 0.4453125 5.953125 C0.21402785 3.97669255 0.09937182 1.98743631 0 0 Z " fill="#8780A3" transform="translate(46,201)"/>
<path d="M0 0 C2.40243465 2.15344283 3.60244944 3.96874765 4.6875 7 C4.93886719 7.680625 5.19023437 8.36125 5.44921875 9.0625 C6 11 6 11 6 14 C5.01 13.67 4.02 13.34 3 13 C2.67 10.03 2.34 7.06 2 4 C1.34 4 0.68 4 0 4 C0 2.68 0 1.36 0 0 Z " fill="#6B6588" transform="translate(449,117)"/>
<path d="M0 0 C0.66 0.33 1.32 0.66 2 1 C-0.64 3.97 -3.28 6.94 -6 10 C-7.32 9.67 -8.64 9.34 -10 9 C-6.7 6.03 -3.4 3.06 0 0 Z " fill="#67638A" transform="translate(80,78)"/>
<path d="M0 0 C0.33 1.32 0.66 2.64 1 4 C4.3 4.33 7.6 4.66 11 5 C6.78370866 7.10814567 4.60209225 7.17700355 0 7 C0 4.69 0 2.38 0 0 Z " fill="#3D3466" transform="translate(264,479)"/>
<path d="M0 0 C-2.77280706 3.08089673 -5.06326356 4.68775452 -9 6 C-8.67 5.01 -8.34 4.02 -8 3 C-7.34 3 -6.68 3 -6 3 C-6.33 2.01 -6.66 1.02 -7 0 C-3.98968256 -0.93423645 -3.13349732 -1.04449911 0 0 Z " fill="#696388" transform="translate(403,428)"/>
<path d="M0 0 C0.33 0.66 0.66 1.32 1 2 C0.0625 4.125 0.0625 4.125 -1 6 C-1.99 6 -2.98 6 -4 6 C-4 6.99 -4 7.98 -4 9 C-4.99 8.67 -5.98 8.34 -7 8 C-6.67 7.01 -6.34 6.02 -6 5 C-5.34 5 -4.68 5 -4 5 C-4 4.34 -4 3.68 -4 3 C-3.34 3 -2.68 3 -2 3 C-2 2.34 -2 1.68 -2 1 C-1.34 0.67 -0.68 0.34 0 0 Z " fill="#4D4674" transform="translate(448,374)"/>
<path d="M0 0 C1.6274637 0.61855631 3.25190356 1.24507305 4.875 1.875 C5.77992188 2.22304688 6.68484375 2.57109375 7.6171875 2.9296875 C10 4 10 4 12 6 C9.03 5.67 6.06 5.34 3 5 C3 4.01 3 3.02 3 2 C2.01 2 1.02 2 0 2 C0 1.34 0 0.68 0 0 Z " fill="#615A86" transform="translate(356,42)"/>
<path d="M0 0 C1.32 0 2.64 0 4 0 C4 0.66 4 1.32 4 2 C6.31 2.33 8.62 2.66 11 3 C11 3.99 11 4.98 11 6 C6.14922412 4.88059018 3.222107 3.8665284 0 0 Z " fill="#605A84" transform="translate(82,419)"/>
<path d="M0 0 C0.99 0.33 1.98 0.66 3 1 C3 1.66 3 2.32 3 3 C2.01 3 1.02 3 0 3 C0 3.66 0 4.32 0 5 C-0.99 5 -1.98 5 -3 5 C-3 5.66 -3 6.32 -3 7 C-3.66 7 -4.32 7 -5 7 C-3.75023244 3.34683329 -3.32901247 2.21934164 0 0 Z " fill="#322A61" transform="translate(408,418)"/>
<path d="M0 0 C1 2 1 2 0.2578125 4.3125 C-0.30292969 5.6428125 -0.30292969 5.6428125 -0.875 7 C-1.24367188 7.886875 -1.61234375 8.77375 -1.9921875 9.6875 C-2.62568982 11.14111773 -3.29086959 12.58173918 -4 14 C-4.66 14 -5.32 14 -6 14 C-6 12.68 -6 11.36 -6 10 C-5.01 10 -4.02 10 -3 10 C-3.061875 9.278125 -3.12375 8.55625 -3.1875 7.8125 C-2.96476068 4.47141026 -1.8717754 2.72967245 0 0 Z " fill="#9592AB" transform="translate(44,281)"/>
<path d="M0 0 C1.32 0 2.64 0 4 0 C4.33 2.64 4.66 5.28 5 8 C2.21611025 6.29374499 1.14615794 5.52373261 0.25 2.3125 C0.1675 1.549375 0.085 0.78625 0 0 Z " fill="#514A73" transform="translate(425,238)"/>
<path d="M0 0 C0 4.38968456 -2.12805101 5.76905739 -5 9 C-5.33 7.68 -5.66 6.36 -6 5 C-5.34 5 -4.68 5 -4 5 C-3.896875 4.360625 -3.79375 3.72125 -3.6875 3.0625 C-3.460625 2.381875 -3.23375 1.70125 -3 1 C-2.01 0.67 -1.02 0.34 0 0 Z " fill="#686385" transform="translate(438,198)"/>
<path d="M0 0 C4.43458973 1.3937282 6.87378374 3.60582235 10 7 C7.36 6.67 4.72 6.34 2 6 C1.34 4.02 0.68 2.04 0 0 Z " fill="#58527E" transform="translate(400,67)"/>
<path d="M0 0 C0.66 0 1.32 0 2 0 C2 0.66 2 1.32 2 2 C2.66 2 3.32 2 4 2 C4 2.66 4 3.32 4 4 C4.99 4 5.98 4 7 4 C7.33 5.98 7.66 7.96 8 10 C4.71211176 6.88983545 2.16264012 3.98381075 0 0 Z " fill="#746E91" transform="translate(61,396)"/>
<path d="M0 0 C0.33 1.32 0.66 2.64 1 4 C0.01 5.485 0.01 5.485 -1 7 C-1.99 7 -2.98 7 -4 7 C-4 7.66 -4 8.32 -4 9 C-4.66 8.67 -5.32 8.34 -6 8 C-4.02 5.36 -2.04 2.72 0 0 Z " fill="#5A537F" transform="translate(65,270)"/>
<path d="M0 0 C0.33 0 0.66 0 1 0 C1 2.97 1 5.94 1 9 C0.34 9 -0.32 9 -1 9 C-1.33 9.66 -1.66 10.32 -2 11 C-2.66 11 -3.32 11 -4 11 C-3.49396008 8.83125748 -3.00016187 7.00032373 -2 5 C-1.34 5 -0.68 5 0 5 C0 3.35 0 1.7 0 0 Z " fill="#3F3867" transform="translate(456,191)"/>
<path d="M0 0 C1.65 0 3.3 0 5 0 C3.02 2.97 3.02 2.97 1 6 C-0.32 4.68 -1.64 3.36 -3 2 C-2.01 2 -1.02 2 0 2 C0 1.34 0 0.68 0 0 Z " fill="#30295F" transform="translate(149,38)"/>
<path d="M0 0 C2.3125 0.1875 2.3125 0.1875 5 1 C7.20970874 3.89548041 8 5.33157745 8 9 C6.66368764 7.6905332 5.33102075 6.37734515 4 5.0625 C3.2575 4.33160156 2.515 3.60070312 1.75 2.84765625 C0 1 0 1 0 0 Z " fill="#757293" transform="translate(69,406)"/>
<path d="M0 0 C3.53372712 1.96318174 6.24479785 4.04070881 9 7 C6.36 6.34 3.72 5.68 1 5 C0.67 3.35 0.34 1.7 0 0 Z " fill="#767193" transform="translate(95,255)"/>
<path d="M0 0 C0.66 0 1.32 0 2 0 C2 0.66 2 1.32 2 2 C3.32 1.67 4.64 1.34 6 1 C6 3.31 6 5.62 6 8 C1.125 3.375 1.125 3.375 0 0 Z " fill="#65608A" transform="translate(433,250)"/>
<path d="M0 0 C5.875 3.625 5.875 3.625 7 7 C4.83125748 6.49396008 3.00032373 6.00016187 1 5 C0.375 2.4375 0.375 2.4375 0 0 Z " fill="#6C668A" transform="translate(58,222)"/>
<path d="M0 0 C0 0.33 0 0.66 0 1 C-1.93475671 1.53093324 -3.87293155 2.04942317 -5.8125 2.5625 C-7.43091797 2.99755859 -7.43091797 2.99755859 -9.08203125 3.44140625 C-12 4 -12 4 -15 3 C-9.8531808 -0.16727335 -5.841744 -0.35050464 0 0 Z " fill="#827F99" transform="translate(208,161)"/>
<path d="M0 0 C0 0.99 0 1.98 0 3 C-2.95664519 4.4783226 -5.74229737 4.06032783 -9 4 C-3.7826087 0 -3.7826087 0 0 0 Z " fill="#494277" transform="translate(125,51)"/>
<path d="M0 0 C2.9375 0.375 2.9375 0.375 6 1 C6.33 1.66 6.66 2.32 7 3 C4.69 3.33 2.38 3.66 0 4 C0 2.68 0 1.36 0 0 Z " fill="#393066" transform="translate(214,315)"/>
<path d="M0 0 C4.875 4.75 4.875 4.75 6 7 C5.34 7 4.68 7 4 7 C3.67 7.99 3.34 8.98 3 10 C0.96564469 6.27034861 0 4.33094958 0 0 Z " fill="#443C6E" transform="translate(64,229)"/>
<path d="M0 0 C0.33 1.32 0.66 2.64 1 4 C-0.65 5.32 -2.3 6.64 -4 8 C-3.6875 5.125 -3.6875 5.125 -3 2 C-2.01 1.34 -1.02 0.68 0 0 Z " fill="#4C4771" transform="translate(52,111)"/>
<path d="M0 0 C0.33 0 0.66 0 1 0 C1.375 2.25 1.375 2.25 1 5 C-2 7.3125 -2 7.3125 -5 9 C-3.75471468 5.55151758 -2.38532951 2.80016942 0 0 Z " fill="#5D557F" transform="translate(56,103)"/>
<path d="M0 0 C-0.3125 1.9375 -0.3125 1.9375 -1 4 C-4 5 -4 5 -6.1875 4.0625 C-6.785625 3.711875 -7.38375 3.36125 -8 3 C-2.25 0 -2.25 0 0 0 Z " fill="#4F4878" transform="translate(145,40)"/>
<path d="M0 0 C0 1.32 0 2.64 0 4 C-2.97 4 -5.94 4 -9 4 C-3 0 -3 0 0 0 Z " fill="#57507E" transform="translate(158,34)"/>
<path d="M0 0 C0.66 0 1.32 0 2 0 C0.375 6.75 0.375 6.75 -3 9 C-3 7.35 -3 5.7 -3 4 C-2.01 4 -1.02 4 0 4 C0 2.68 0 1.36 0 0 Z " fill="#676289" transform="translate(426,402)"/>
<path d="M0 0 C0 0.99 0 1.98 0 3 C-0.99 3.33 -1.98 3.66 -3 4 C-3.66 4.66 -4.32 5.32 -5 6 C-5 5.34 -5 4.68 -5 4 C-5.99 3.67 -6.98 3.34 -8 3 C-3.375 0 -3.375 0 0 0 Z " fill="#4F4577" transform="translate(370,279)"/>
<path d="M0 0 C0.66 0 1.32 0 2 0 C1.67 1.65 1.34 3.3 1 5 C0.34 5 -0.32 5 -1 5 C-1.66 6.32 -2.32 7.64 -3 9 C-3.33 8.01 -3.66 7.02 -4 6 C-3.34 6 -2.68 6 -2 6 C-2 4.68 -2 3.36 -2 2 C-1.34 2 -0.68 2 0 2 C0 1.34 0 0.68 0 0 Z " fill="#322963" transform="translate(61,277)"/>
<path d="M0 0 C2.31 0 4.62 0 7 0 C7.66 1.65 8.32 3.3 9 5 C5.54074837 3.7508258 2.85306797 2.32472205 0 0 Z " fill="#5B5481" transform="translate(353,186)"/>
<path d="M0 0 C1.98 1.65 3.96 3.3 6 5 C5.67 5.66 5.34 6.32 5 7 C3.68 6.67 2.36 6.34 1 6 C0.67 4.02 0.34 2.04 0 0 Z " fill="#59547E" transform="translate(434,96)"/>
<path d="M0 0 C2.875 -0.1875 2.875 -0.1875 6 0 C6.66 0.99 7.32 1.98 8 3 C5.36 3 2.72 3 0 3 C0 2.01 0 1.02 0 0 Z " fill="#393166" transform="translate(264,13)"/>
<path d="M0 0 C-0.66 0 -1.32 0 -2 0 C-2.33 0.99 -2.66 1.98 -3 3 C-4.65 3.33 -6.3 3.66 -8 4 C-5.97675095 -0.48005146 -4.79569304 -1.43870791 0 0 Z " fill="#4C4475" transform="translate(318,472)"/>
<path d="M0 0 C2.31 0.33 4.62 0.66 7 1 C7.33 1.99 7.66 2.98 8 4 C4.28400809 4.20086443 3.22791555 4.1519437 0 2 C0 1.34 0 0.68 0 0 Z " fill="#352C65" transform="translate(162,463)"/>
<path d="M0 0 C2.31 0.66 4.62 1.32 7 2 C7 2.99 7 3.98 7 5 C4.03824877 4.38722388 2.61941217 3.74627478 0 2 C0 1.34 0 0.68 0 0 Z " fill="#4B4273" transform="translate(179,304)"/>
<path d="M0 0 C0.99 0 1.98 0 3 0 C3 0.66 3 1.32 3 2 C0.75 4.1875 0.75 4.1875 -2 6 C-4.3125 5.75 -4.3125 5.75 -6 5 C-5.01 5 -4.02 5 -3 5 C-3 4.01 -3 3.02 -3 2 C-2.01 2 -1.02 2 0 2 C0 1.34 0 0.68 0 0 Z " fill="#635D83" transform="translate(415,221)"/>
<path d="M0 0 C-2.97 1.65 -5.94 3.3 -9 5 C-9 4.34 -9 3.68 -9 3 C-8.34 3 -7.68 3 -7 3 C-7 2.01 -7 1.02 -7 0 C-3.98968256 -0.93423645 -3.13349732 -1.04449911 0 0 Z " fill="#6D6890" transform="translate(135,192)"/>
<path d="M0 0 C0.33 0.99 0.66 1.98 1 3 C-1.3125 4.5625 -1.3125 4.5625 -4 6 C-4.99 5.67 -5.98 5.34 -7 5 C-4.69 3.35 -2.38 1.7 0 0 Z " fill="#57517E" transform="translate(101,63)"/>
<path d="M0 0 C-2 2 -2 2 -3.9453125 2.1953125 C-5.96354167 2.13020833 -7.98177083 2.06510417 -10 2 C-6.86358686 -1.13641314 -4.14410883 -1.38136961 0 0 Z " fill="#372E66" transform="translate(302,312)"/>
<path d="M0 0 C2.31 0.33 4.62 0.66 7 1 C7.66 2.65 8.32 4.3 9 6 C5.56404834 4.47291037 2.88087546 2.40072955 0 0 Z " fill="#3E376B" transform="translate(382,203)"/>
<path d="M0 0 C0.99 0.33 1.98 0.66 3 1 C3 3.97 3 6.94 3 10 C0.70366176 6.55549263 0.45983515 4.06187717 0 0 Z " fill="#2F265C" transform="translate(452,130)"/>
<path d="M0 0 C1.10844919 3.32534757 0.84454356 5.62182575 0 9 C-0.99 8.67 -1.98 8.34 -3 8 C-1.125 2.25 -1.125 2.25 0 0 Z " fill="#645E86" transform="translate(47,117)"/>
<path d="M0 0 C0.99 0.33 1.98 0.66 3 1 C3 1.66 3 2.32 3 3 C1.02 3.33 -0.96 3.66 -3 4 C-2.67 3.01 -2.34 2.02 -2 1 C-1.34 0.67 -0.68 0.34 0 0 Z " fill="#30275E" transform="translate(394,428)"/>
<path d="M0 0 C0.99 0.495 0.99 0.495 2 1 C2 1.66 2 2.32 2 3 C2.66 3 3.32 3 4 3 C4 4.65 4 6.3 4 8 C3.34 8 2.68 8 2 8 C1.34 5.36 0.68 2.72 0 0 Z " fill="#605C80" transform="translate(42,358)"/>
<path d="M0 0 C4.75 0.875 4.75 0.875 7 2 C7 2.66 7 3.32 7 4 C5.35 4 3.7 4 2 4 C1.34 2.68 0.68 1.36 0 0 Z " fill="#302863" transform="translate(366,191)"/>
<path d="M0 0 C2.12508244 3.18762365 2.5020163 5.26512223 3 9 C2.01 9 1.02 9 0 9 C0 6.03 0 3.06 0 0 Z " fill="#3B3269" transform="translate(42,159)"/>
<path d="M0 0 C6.875 3.75 6.875 3.75 8 6 C6.35 6 4.7 6 3 6 C2.67 5.01 2.34 4.02 2 3 C1.34 2.67 0.68 2.34 0 2 C0 1.34 0 0.68 0 0 Z " fill="#68658B" transform="translate(410,74)"/>
</svg>
